<svg width="440" height="417" viewBox="0 0 440 417" fill="none" xmlns="http://www.w3.org/2000/svg">
<path d="M390.96 81.3253C388.583 71.6953 384.831 61.3253 378.289 54.2253C371.747 47.1253 363.859 39.6852 353.653 39.3052C343.448 38.9152 331.366 37.1252 323.262 30.2452C315.149 23.3752 306.711 21.3753 296.888 17.0953C287.066 12.8153 277.872 10.1752 267.214 7.30524C256.566 4.42524 244.819 3.31528 233.473 1.65528C222.128 -0.00472426 207.414 1.83528 196.491 3.34528C185.578 4.86528 174.125 7.29526 164.057 10.3253C153.998 13.3553 144.352 16.2752 135.316 21.0652C126.289 25.8652 117.527 29.4953 109.737 35.0253C101.958 40.5553 95.0624 46.4453 87.6856 52.5753C80.299 58.7053 74.4644 64.8353 68.0403 72.5753C61.6163 80.3053 56.538 86.7753 50.8704 95.0953C45.2027 103.415 40.8513 111.305 36.6766 120.645C32.5118 129.985 29.3195 139.215 25.4886 149.255C21.648 159.285 21.4417 171.675 18.9959 182.645C16.5599 193.625 18.4163 209.805 17.6993 221.325C16.9822 232.845 21.5105 246.055 22.6204 256.315C23.7304 266.575 32.7672 278.165 29.3882 287.225C26.0092 296.295 18.5244 303.765 13.7702 310.325C9.06518 327.375 1.06954 343.925 1.00079 362.325C0.932027 380.725 5.36204 397.135 21.4024 406.555C37.4428 415.975 56.1746 417.255 74.6706 415.325C93.1667 413.395 111.172 410.835 128.479 405.105C145.777 399.375 160.108 406.175 177.74 410.395C195.361 414.615 217.924 417.025 235.762 414.325C253.6 411.625 274.316 411.135 289.541 404.075C304.766 397.015 318.321 390.915 331.778 382.075C345.235 373.245 355.53 364.465 366.649 352.575C377.758 340.675 386.343 330.075 394.958 316.395C403.582 302.725 409.201 286.925 413.778 270.555C418.355 254.185 424.475 234.725 423.375 216.325C441.723 205.565 445.633 172.295 426.321 159.325C433.816 143.795 436.007 122.505 428.61 106.995C421.214 91.4952 408.258 81.6553 390.96 81.3253ZM262.283 18.3253C262.548 18.5353 262.931 19.1653 263.265 19.3253C268.855 17.6253 275.554 18.9753 280.691 21.5853C285.838 24.1953 289.826 25.0552 294.776 27.2452C299.727 29.4452 304.403 32.5253 309.186 34.5753C313.97 36.6253 318.203 40.4252 323.262 42.2452C328.311 44.0752 331.592 51.1453 335.953 52.3253C361.089 43.2253 378.888 70.7853 380.155 92.3253C396.451 91.6853 414.171 98.2552 419.229 115.545C424.278 132.845 416.145 151.305 409.623 166.325C416.371 167.325 421.371 170.495 424.327 176.355C427.274 182.225 425.958 191.155 424.367 197.335C422.766 203.505 415.418 206.255 414.534 210.325C412.766 219.375 413.159 233.155 410.615 243.335C408.071 253.505 406.224 264.295 402.816 274.395C399.417 284.505 394.967 291.765 390.704 301.065C386.451 310.375 381.609 319.135 375.244 323.325C374.026 325.025 374.104 325.325 373.279 327.325C367.906 340.305 353.693 352.555 342.829 359.325C343.143 362.565 339.401 369.885 337.918 363.325C337.574 363.555 336.935 363.325 336.935 363.325C336.444 363.325 335.953 363.325 335.953 363.325C335.698 363.445 335.089 364.065 334.971 364.325C335.197 364.675 334.971 365.325 334.971 365.325C334.244 373.205 322.133 374.865 317.064 380.095C311.996 385.325 300.179 386.725 294.698 388.325C288.185 390.925 284.404 393.255 277.017 395.325C262.568 401.105 247.755 407.035 231.165 405.985C214.575 404.935 194.919 404.715 178.771 402.345C162.613 399.985 151.69 388.095 136.485 392.255C121.269 396.415 105.622 402.045 89.4046 403.325C73.1874 404.605 52.0884 408.005 36.1462 403.545C20.2041 399.085 11.6485 387.305 9.84117 371.325C8.0338 355.345 13.1514 337.995 19.5852 324.245C26.0191 310.485 32.5413 298.935 41.2736 287.325C34.5844 266.815 29.7615 247.395 27.5219 225.325C25.2824 203.255 26.9129 177.375 32.4234 157.315C37.9438 137.265 44.8884 121.145 55.929 104.245C66.9599 87.3352 75.7609 74.5953 90.4163 62.3553C105.082 50.1253 117.252 38.6653 135.276 31.0253C153.291 23.3753 172.838 15.7253 193.593 13.3953C214.358 11.0653 243.129 10.8353 262.283 18.3253Z" stroke="#FCFDFA" stroke-width="0.3"/>
<path d="M277.017 395.325C263.128 399.215 248.728 403.325 233.798 403.325C219.142 403.325 204.094 402.325 190.362 400.545C176.62 398.765 166.709 393.955 154.234 390.325C154.185 390.675 153.596 391.295 153.252 391.325C152.761 391.375 152.27 391.325 152.27 391.325C151.926 391.295 151.386 390.675 151.288 390.325C149.048 389.705 146.71 388.705 144.412 388.325C134.933 392.075 123.696 394.195 112.901 397.245C102.115 400.305 88.0396 401.825 76.6355 403.325C65.2314 404.815 47.0497 404.215 36.6769 401.005C26.3042 397.795 18.5836 391.335 13.8491 381.245C9.1146 371.145 12.8963 353.735 14.684 343.255C16.4619 332.775 24.3495 322.805 27.4437 313.245C30.5378 303.685 43.1402 295.145 43.2385 285.325C38.0718 277.725 37.7181 267.125 34.4668 258.255C31.2254 249.375 29.4868 236.225 29.4868 226.325C29.1626 222.925 28.5045 218.405 28.5045 214.325C28.5045 153.585 49.6232 101.975 95.0529 61.0752C140.483 20.1752 202.424 8.24522 262.283 18.3252C243.129 10.8352 214.359 11.0652 193.594 13.3952C172.838 15.7252 153.291 23.3752 135.277 31.0252C117.252 38.6652 105.082 50.1252 90.4166 62.3552C75.7613 74.5952 66.9602 87.3352 55.9293 104.245C44.8887 121.145 37.9441 137.265 32.4237 157.315C26.9132 177.375 25.2827 203.255 27.5222 225.325C29.7618 247.395 34.5847 266.815 41.2739 287.325C32.5416 298.935 26.0194 310.485 19.5855 324.245C13.1517 337.995 8.03411 355.345 9.84148 371.325C11.6488 387.305 20.2044 399.085 36.1465 403.545C52.0887 408.005 73.1877 404.605 89.4049 403.325C105.622 402.045 121.27 396.415 136.485 392.255C151.69 388.095 162.613 399.985 178.771 402.345C194.92 404.715 214.575 404.935 231.165 405.985C247.756 407.035 262.568 401.105 277.017 395.325Z" stroke="#F9F2CE" stroke-width="0.3"/>
<path d="M28.5044 214.325C28.8285 217.725 29.4867 222.245 29.4867 226.325C29.4867 236.225 31.2253 249.375 34.4667 258.255C37.718 267.125 38.0717 277.725 43.2384 285.325C43.4643 285.655 45.1145 286.105 45.2029 286.325C49.2204 276.855 57.7661 269.615 64.1115 261.575C70.4471 253.535 78.3936 245.165 86.458 239.325C86.7625 239.105 86.8804 235.965 90.3871 238.325C90.3281 236.195 97.7737 227.875 99.5221 225.625C101.28 223.375 108.294 214.905 111.015 214.325C111.103 210.665 112.115 208.095 113.961 205.325C114.403 204.665 114.649 204.045 114.944 203.325C114.57 203.825 113.49 204.065 112.979 204.325C111.27 205.185 110.052 205.365 108.068 205.325C107.763 205.315 106.624 205.795 106.103 204.325C103.579 204.165 101.477 209.775 97.0174 203.575C92.5677 197.365 92.44 188.305 96.5852 181.635C100.72 174.955 109.787 173.165 116.908 174.325C124.03 175.485 123.224 175.235 129.678 176.325C128.735 169.675 130.1 157.645 138.518 158.325C145.6 146.635 154.45 138.015 164.057 132.325C165.393 125.675 173.938 121.255 178.791 117.325C180.019 115.865 184.616 115.765 185.667 116.325C186.158 116.275 186.649 116.325 186.649 116.325C187.14 116.325 187.631 116.325 187.631 116.325C194.262 116.745 195.047 131.325 192.611 136.395C190.185 141.465 186.639 150.255 183.702 155.325C190.156 153.475 196.747 160.535 201.609 164.095C206.471 167.655 212.129 172.175 217.099 176.325C216.176 178.895 215.272 180.765 213.17 182.325C214.054 184.405 216.117 186.135 218.081 184.325C218.248 186.835 214.978 186.235 214.152 188.325C205.548 193.865 195.872 197.975 188.859 206.575C181.846 215.175 176.492 221.905 169.214 230.575C161.925 239.235 147.987 238.235 139.5 245.325C136.229 249.295 128.499 258.065 131.642 263.325C133.125 264.205 134.668 265.805 136.554 266.325C130.955 278.605 126.004 290.965 120.837 303.325C129.943 295.835 141.367 294.675 153.321 288.395C165.285 282.115 182.573 281.845 197.454 282.325C212.335 282.805 231.421 281.575 246.567 281.325C248.247 276.615 246.538 270.945 248.532 266.325C248.581 266.215 247.117 264.855 248.65 264.425C250.182 263.995 252.451 265.215 253.443 264.325C253.443 261.655 253.443 258.995 253.443 256.325C244.377 259.505 236.656 251.235 233.798 244.325C231.931 239.825 229.319 235.245 226.922 233.325C228.926 239.465 222.924 248.335 219.751 254.025C216.569 259.715 208.131 262.455 202.149 265.105C196.167 267.755 185.431 268.705 178.791 270.325C177.563 270.625 177.111 272.155 175.844 272.325C175.805 269.175 179.793 268.025 180.755 265.325C180.569 266.095 178.378 262.095 181.512 258.095C184.645 254.095 182.474 252.835 185.588 247.245C188.712 241.665 194.036 234.755 200.106 232.025C206.167 229.285 216.588 222.985 223.975 226.325C224.712 224.445 224.152 223.535 222.993 221.325C221.441 218.375 220.39 217.225 220.046 213.325C215.734 192.115 220.36 170.245 231.833 152.325C233.886 149.125 237.53 138.355 240.674 137.325C238.463 136.435 236.646 133.415 233.798 133.325C245.958 117.885 266.487 104.985 286.84 109.325C286.604 109.255 286.202 108.455 285.858 108.325C283.166 107.325 295.454 101.705 295.464 96.1054C295.474 90.5054 300.68 82.3554 303.313 77.0954C305.945 71.8354 311.053 66.9253 315.571 62.5753C320.09 58.2153 326.818 54.3253 333.006 53.3253C314.53 35.6253 288.146 25.2953 263.266 19.3253C262.932 19.1653 262.549 18.5353 262.283 18.3253C202.424 8.24533 140.483 20.1753 95.0528 61.0753C49.6231 101.975 28.5044 153.585 28.5044 214.325ZM208.259 38.3253C207.905 49.2753 209.163 60.7853 199.644 70.5553C190.126 80.3253 179.046 80.6753 167.986 86.3253C167.043 87.4853 166.061 89.6553 164.057 89.3253C163.615 87.0153 166.542 86.2553 167.004 84.3253C170.265 73.7153 167.878 61.1254 176.6 51.0954C185.323 41.0654 194.242 37.9453 206.294 37.3253C207.699 36.6953 208.465 34.9853 210.223 35.3253C211.029 37.3353 208.436 36.7953 208.259 38.3253ZM272.106 83.3253C271.733 83.1153 271.124 83.3253 271.124 83.3253C268.481 85.3953 264.051 82.9253 261.301 81.3253C261.409 81.7953 261.301 82.3253 261.301 82.3253C261.301 91.7353 260.555 96.3853 251.469 94.3353C242.393 92.2753 244.622 85.2853 248.532 80.3253C248.296 80.0253 248.532 79.3253 248.532 79.3253C248.286 79.0753 247.549 79.3253 247.549 79.3253C245.054 80.5653 243.984 80.4853 241.656 80.3253C241.636 80.6653 241.017 81.2553 240.674 81.3253C228.356 83.6253 224.653 69.4654 229.653 59.1054C234.642 48.7354 247.353 50.1153 257.382 51.3153C267.411 52.5153 275.397 55.7953 282.223 63.0253C289.05 70.2453 281.29 88.5153 272.106 83.3253ZM135.571 121.325C135.473 121.315 133.587 120.295 133.607 120.325C131.387 122.655 126.692 120.005 124.766 118.325C124.275 118.375 123.784 118.325 123.784 118.325C123.293 118.325 122.802 118.325 122.802 118.325C124.55 125.845 126.358 132.895 116.692 131.545C107.027 130.205 107.243 125.305 110.032 117.325C108.127 116.705 106.958 118.525 105.121 118.325C105.052 118.325 103.137 117.275 103.157 117.325C97.2138 123.515 88.3538 109.785 90.3871 103.325C92.4204 96.8653 95.2493 87.1853 104.139 87.3253C113.038 87.4653 122.743 88.0453 130.68 90.3053C138.616 92.5553 143.783 96.4853 146.69 104.005C149.608 111.525 144.313 122.315 135.571 121.325ZM79.5822 146.325C83.8059 158.505 83.1478 172.835 75.4075 183.075C67.6771 193.315 58.3259 196.065 50.1142 202.325C49.5641 203.525 48.7783 205.775 47.1674 206.325C46.5584 204.385 48.3461 203.195 48.1497 201.325C46.7942 177.765 49.4168 150.005 77.6176 145.325C80.9868 144.765 78.8062 144.095 79.5822 146.325Z" stroke="#9F8209" stroke-width="0.3"/>
<path d="M263.266 19.3254C288.146 25.2954 314.53 35.6254 333.006 53.3254C326.818 54.3254 320.09 58.2154 315.571 62.5754C311.053 66.9254 305.945 71.8354 303.313 77.0954C300.68 82.3554 295.474 90.5055 295.464 96.1055C295.454 101.705 283.166 107.325 285.858 108.325C287.449 104.425 295.936 104.755 296.653 98.3154C297.37 91.8854 299.482 89.6554 302.478 83.2454C305.483 76.8454 305.169 76.5154 311.475 70.4054C317.781 64.3054 327.368 55.4354 335.953 52.3254C331.592 51.1454 328.311 44.0754 323.262 42.2454C318.204 40.4254 313.97 36.6254 309.186 34.5754C304.403 32.5254 299.727 29.4454 294.777 27.2454C289.826 25.0554 285.838 24.1954 280.691 21.5854C275.554 18.9754 268.855 17.6254 263.266 19.3254Z" stroke="#F6EEC5" stroke-width="0.3"/>
<path d="M206.294 37.325C186.158 46.395 178.113 67.145 167.004 84.325C166.542 86.255 163.615 87.015 164.057 89.325C166.061 89.655 167.043 87.485 167.986 86.325C174.823 77.955 178.153 68.085 183.997 58.625C189.841 49.175 200.902 45.015 208.259 38.325C208.436 36.795 211.029 37.335 210.223 35.325C208.465 34.985 207.699 36.695 206.294 37.325Z" stroke="#482709" stroke-width="0.3"/>
<path d="M167.004 84.3252C178.113 67.1452 186.158 46.3952 206.294 37.3252C194.242 37.9452 185.323 41.0652 176.601 51.0952C167.878 61.1252 170.265 73.7152 167.004 84.3252Z" stroke="#CAB257" stroke-width="0.3"/>
<path d="M167.986 86.3252C179.046 80.6752 190.126 80.3252 199.644 70.5552C209.162 60.7852 207.905 49.2752 208.259 38.3252C200.902 45.0152 189.841 49.1752 183.997 58.6252C178.152 68.0852 174.822 77.9552 167.986 86.3252Z" stroke="#CBB354" stroke-width="0.3"/>
<path d="M240.674 81.3252C240.448 80.9652 240.674 80.3252 240.674 80.3252C226.942 78.7252 229.231 62.9352 234.78 54.3252C252.864 48.3252 291.388 55.2552 279.965 81.3252C277.273 81.2952 274.975 82.9552 272.106 82.3252C272.126 82.8252 272.106 83.3252 272.106 83.3252C281.291 88.5152 289.05 70.2452 282.224 63.0252C275.397 55.7952 267.411 52.5152 257.382 51.3152C247.353 50.1152 234.643 48.7353 229.653 59.1053C224.653 69.4653 228.356 83.6252 240.674 81.3252Z" stroke="#F5E8BA" stroke-width="0.3"/>
<path d="M335.953 52.3252C327.368 55.4352 317.781 64.3052 311.475 70.4052C305.169 76.5152 305.484 76.8452 302.478 83.2452C299.482 89.6552 297.37 91.8852 296.653 98.3152C295.936 104.755 287.449 104.425 285.858 108.325C286.202 108.455 286.604 109.255 286.84 109.325C300.779 112.165 309.53 119.485 322.87 124.645C336.199 129.815 339.431 141.265 344.774 154.345C350.108 167.435 345.609 186.825 343.812 200.325C342.819 207.735 348.3 216.035 342.829 224.325C347.466 223.145 352.21 226.765 356.581 227.325C357.062 227.385 358.084 227.435 358.545 227.325C361.61 221.235 375.352 223.835 381.383 220.525C387.404 217.205 398.592 214.865 405.694 213.325C405.115 207.135 411.097 208.825 414.535 210.325C415.419 206.255 422.766 203.505 424.367 197.335C425.958 191.155 427.275 182.225 424.328 176.355C421.371 170.495 416.371 167.325 409.623 166.325C416.145 151.305 424.279 132.845 419.23 115.545C414.171 98.2552 396.451 91.6852 380.155 92.3252C378.888 70.7852 361.09 43.2252 335.953 52.3252Z" stroke="#FAEDE4" stroke-width="0.3"/>
<path d="M240.674 80.325C238.719 77.215 239.731 71.165 244.357 69.075C248.984 66.985 250.938 75.035 248.532 79.325C248.532 79.325 248.296 80.025 248.532 80.325C251.626 84.255 243.856 91.405 253.453 92.315C263.05 93.225 255.771 86.515 260.319 82.325C256.429 77.845 256.419 65.9551 262.942 67.6551C269.464 69.3651 271.91 77.085 272.106 82.325C274.974 82.955 277.273 81.295 279.964 81.325C291.388 55.255 252.864 48.325 234.78 54.325C229.23 62.935 226.942 78.725 240.674 80.325Z" stroke="#F8ECE3" stroke-width="0.3"/>
<path d="M260.319 82.3253C260.535 82.5753 261.301 82.3253 261.301 82.3253C261.301 82.3253 261.409 81.7953 261.301 81.3253C260.397 77.4053 256.684 66.6553 263.344 69.2553C269.994 71.8553 270.426 78.1453 271.124 83.3253C271.124 83.3253 271.733 83.1153 272.106 83.3253C272.106 83.3253 272.126 82.8253 272.106 82.3253C271.91 77.0853 269.464 69.3653 262.942 67.6553C256.419 65.9553 256.429 77.8453 260.319 82.3253Z" stroke="#3E2F26" stroke-width="0.3"/>
<path d="M240.674 80.325C240.674 80.325 240.448 80.965 240.674 81.325C241.017 81.255 241.636 80.665 241.656 80.325C242.324 69.565 250.594 67.965 247.549 79.325C247.549 79.325 248.286 79.075 248.532 79.325C250.938 75.035 248.983 66.985 244.357 69.075C239.731 71.165 238.719 77.215 240.674 80.325Z" stroke="#44332D" stroke-width="0.3"/>
<path d="M261.301 81.3253C264.051 82.9253 268.481 85.3953 271.124 83.3253C270.426 78.1453 269.994 71.8553 263.344 69.2553C256.684 66.6553 260.397 77.4053 261.301 81.3253Z" stroke="#F2E6D6" stroke-width="0.3"/>
<path d="M241.656 80.325C243.984 80.485 245.054 80.565 247.549 79.325C250.594 67.965 242.324 69.565 241.656 80.325Z" stroke="#F5E6DA" stroke-width="0.3"/>
<path d="M261.301 82.3252C261.301 82.3252 260.535 82.5752 260.319 82.3252C255.771 86.5152 263.05 93.2252 253.453 92.3152C243.856 91.4052 251.626 84.2552 248.532 80.3252C244.622 85.2852 242.393 92.2752 251.469 94.3352C260.555 96.3852 261.301 91.7352 261.301 82.3252Z" stroke="#F6EABF" stroke-width="0.3"/>
<path d="M103.157 117.325C102.96 116.925 103.157 116.325 103.157 116.325C93.3931 116.695 98.6089 110.945 92.3519 107.325C91.0553 101.115 94.228 94.1352 100.21 92.3252C101.084 94.4652 102.233 97.0852 105.121 96.3252C104.768 93.9052 104.915 92.4052 104.139 90.3252C109.532 89.4852 114.787 87.1752 119.855 90.3252C119.099 95.0152 111.339 90.1352 109.05 93.3252C112.626 94.1652 123.362 96.9152 123.784 91.3252C137.3 91.1252 151.17 105.915 141.465 118.325C139.383 118.265 137.31 118.095 135.572 119.325C135.729 119.775 135.797 120.985 135.572 121.325C144.314 122.315 149.608 111.525 146.691 104.005C143.783 96.4852 138.617 92.5552 130.68 90.3052C122.743 88.0452 113.038 87.4652 104.139 87.3252C95.2495 87.1852 92.4206 96.8652 90.3873 103.325C88.354 109.785 97.2141 123.515 103.157 117.325Z" stroke="#F6ECC3" stroke-width="0.3"/>
<path d="M103.157 116.325C102.803 113.025 103.078 105.925 108.294 105.555C113.51 105.185 112.243 113.135 111.997 116.325C111.555 122.215 108.098 131.135 118.873 130.325C125.552 127.655 119.502 120.045 122.802 118.325C118.588 113.455 119.61 102.385 126.407 104.655C133.214 106.935 133.823 114.205 135.571 119.325C137.31 118.095 139.383 118.265 141.465 118.325C151.17 105.915 137.3 91.1252 123.784 91.3252C123.362 96.9152 112.626 94.1652 109.05 93.3252C111.339 90.1352 119.099 95.0152 119.855 90.3252C114.787 87.1752 109.532 89.4852 104.139 90.3252C104.915 92.4052 104.768 93.9052 105.121 96.3252C102.233 97.0852 101.084 94.4652 100.21 92.3252C94.228 94.1352 91.0553 101.115 92.3519 107.325C98.6089 110.945 93.3931 116.695 103.157 116.325ZM104.139 104.325C100.76 106.585 98.7955 101.735 95.2986 102.325C95.9273 98.0452 104.021 100.835 104.139 104.325Z" stroke="#F8ECE5" stroke-width="0.3"/>
<path d="M104.139 104.325C104.021 100.835 95.927 98.0451 95.2983 102.325C98.7952 101.735 100.76 106.585 104.139 104.325Z" stroke="#F8F2D7" stroke-width="0.3"/>
<path d="M122.802 118.325C122.802 118.325 123.293 118.325 123.784 118.325C122.763 114.705 119.511 104.435 125.435 105.665C131.358 106.895 133.44 114.845 133.607 119.325C133.627 119.825 133.607 120.325 133.607 120.325C133.587 120.295 135.473 121.315 135.572 121.325C135.797 120.985 135.729 119.775 135.572 119.325C133.823 114.205 133.214 106.935 126.407 104.655C119.61 102.385 118.588 113.455 122.802 118.325Z" stroke="#3E2D24" stroke-width="0.3"/>
<path d="M103.157 116.325C103.157 116.325 102.96 116.925 103.157 117.325C103.137 117.275 105.052 118.325 105.121 118.325C105.347 117.985 105.318 116.735 105.121 116.325C104.09 114.135 102.665 109.455 107.331 107.575C111.997 105.695 109.669 113.695 110.032 115.325C109.571 115.225 112.242 116.505 111.997 116.325C112.242 113.135 113.51 105.185 108.294 105.555C103.078 105.925 102.803 113.025 103.157 116.325Z" stroke="#44362D" stroke-width="0.3"/>
<path d="M123.784 118.325C123.784 118.325 124.275 118.375 124.766 118.325C127.497 118.065 131.23 118.045 133.607 119.325C133.44 114.845 131.357 106.895 125.434 105.665C119.511 104.435 122.762 114.705 123.784 118.325Z" stroke="#F2E4DC" stroke-width="0.3"/>
<path d="M105.121 116.325C105.249 116.205 109.63 115.235 110.032 115.325C109.669 113.695 111.997 105.695 107.331 107.575C102.665 109.455 104.09 114.135 105.121 116.325Z" stroke="#F6E7E3" stroke-width="0.3"/>
<path d="M240.674 137.325C241.577 137.695 242.874 138.015 243.62 138.325C257.942 144.255 271.743 151.715 285.858 158.325C289.011 148.955 295.671 140.645 303.539 134.325C305.592 132.465 307.615 130.285 310.414 129.325C309.324 131.915 306.289 133.975 305.503 137.325C300.022 148.245 298.058 162.655 299.61 175.325C301.162 187.995 311.092 196.795 305.503 210.325C311.004 205.275 316.583 203.945 322.889 200.025C329.186 196.095 338.439 197.445 343.811 200.325C345.609 186.825 350.108 167.435 344.774 154.345C339.431 141.265 336.199 129.815 322.87 124.645C309.53 119.485 300.778 112.165 286.84 109.325C266.488 104.985 245.958 117.885 233.798 133.325C236.646 133.415 238.464 136.435 240.674 137.325Z" stroke="#320202" stroke-width="0.3"/>
<path d="M105.121 116.325C105.318 116.735 105.347 117.985 105.121 118.325C106.958 118.525 108.127 116.705 110.032 117.325C107.243 125.305 107.027 130.205 116.692 131.545C126.358 132.895 124.55 125.845 122.802 118.325C119.501 120.045 125.552 127.655 118.873 130.325C108.097 131.135 111.555 122.215 111.997 116.325C112.243 116.505 109.571 115.225 110.032 115.325C109.63 115.235 105.249 116.205 105.121 116.325Z" stroke="#F2E6B9" stroke-width="0.3"/>
<path d="M178.791 117.325C178.545 117.615 178.565 119.165 178.791 119.325C179.125 119.555 179.773 119.325 179.773 119.325C180.402 116.685 179.881 118.525 181.737 118.325C181.02 118.405 185.411 117.745 184.684 118.325C184.674 117.575 184.606 116.425 185.667 116.325C184.615 115.765 180.018 115.865 178.791 117.325Z" stroke="#895822" stroke-width="0.3"/>
<path d="M184.684 118.325C184.832 128.155 184.016 140.675 177.052 148.555C170.078 156.435 168.005 166.745 159.145 170.325C164.852 151.985 186.03 140.115 181.737 118.325C179.881 118.525 180.402 116.685 179.773 119.325C180.117 123.185 179.292 127.205 178.791 130.325C178.172 141.985 167.73 149.085 162.171 159.405C156.611 169.735 153.095 183.115 158.163 195.325C161.071 189.025 157.309 183.465 158.163 176.325C159.018 169.185 170.127 174.265 174.862 171.325C173.663 167.625 178.692 164.115 179.773 160.325C179.94 159.995 180.411 159.385 180.755 159.325C181.58 157.995 183.054 156.445 183.702 155.325C186.639 150.255 190.185 141.465 192.611 136.395C195.047 131.325 194.261 116.745 187.631 116.325C191.157 126.395 192.837 138.025 184.93 146.575C177.023 155.115 178.938 168.845 166.021 169.325C175.068 152.835 191.963 137.165 186.649 116.325C186.649 116.325 186.158 116.275 185.667 116.325C184.606 116.425 184.674 117.575 184.684 118.325Z" stroke="#631B0F" stroke-width="0.3"/>
<path d="M187.631 116.325C187.631 116.325 187.14 116.325 186.649 116.325C191.963 137.165 175.068 152.835 166.021 169.325C178.938 168.845 177.023 155.115 184.93 146.575C192.837 138.025 191.158 126.395 187.631 116.325Z" stroke="#E89073" stroke-width="0.3"/>
<path d="M129.678 176.325C129.727 176.675 130.316 177.295 130.66 177.325C131.151 177.375 131.642 177.325 131.642 177.325C131.642 162.565 143.734 155.705 152.515 145.575C161.287 135.435 170.785 129.865 178.791 119.325C178.565 119.165 178.545 117.615 178.791 117.325C173.938 121.255 165.393 125.675 164.057 132.325C154.45 138.015 145.6 146.635 138.518 158.325C130.1 157.645 128.735 169.675 129.678 176.325Z" stroke="#B27B1B" stroke-width="0.3"/>
<path d="M181.738 118.325C186.03 140.115 164.852 151.985 159.146 170.325C168.006 166.745 170.078 156.435 177.052 148.555C184.016 140.675 184.832 128.155 184.684 118.325C185.411 117.745 181.021 118.405 181.738 118.325Z" stroke="#E79074" stroke-width="0.3"/>
<path d="M133.606 120.325C133.606 120.325 133.626 119.825 133.606 119.325C131.229 118.045 127.497 118.065 124.766 118.325C126.691 120.005 131.387 122.655 133.606 120.325Z" stroke="#EDE0B2" stroke-width="0.3"/>
<path d="M131.642 177.325C131.642 183.315 129.933 186.915 128.695 192.325C128.587 192.795 128.695 193.325 128.695 193.325C127.968 195.375 126.731 197.335 124.766 198.325C124.472 198.475 123.391 199.455 122.802 198.325C121.967 203.085 119.246 205.005 115.926 209.325C114.305 211.435 113.765 214.155 111.015 215.325C109.158 225.035 94.6894 230.655 92.3516 240.325C105.082 248.605 118.598 255.605 131.642 263.325C128.499 258.065 136.229 249.295 139.5 245.325C137.781 246.765 136.072 248.775 133.607 248.325C143.803 234.705 166.149 236.105 175.107 219.575C184.066 203.045 197.434 195.165 212.188 186.325C195.401 175.705 178.702 196.305 162.092 195.325C165.344 191.595 171.493 192.405 175.844 190.325C176.041 190.215 175.844 189.325 175.844 189.325C172.563 189.095 170.088 190.745 167.004 191.325C172.514 188.905 172.455 183.215 173.88 177.325C179.734 178.195 183.732 170.445 189.606 171.335C195.48 172.215 200.872 174.265 202.365 180.325C202.738 180.465 204.153 181.265 204.33 181.325C206.854 181.455 208.72 182.135 211.206 182.325C211.029 182.255 211.206 181.325 211.206 181.325C209.948 175.965 204.654 171.195 200.322 167.405C195.99 163.625 187.896 156.155 183.702 163.325C180.687 164.505 181.384 161.305 179.773 160.325C178.693 164.115 173.663 167.625 174.862 171.325C170.127 174.265 159.018 169.185 158.163 176.325C157.309 183.465 161.071 189.025 158.163 195.325C153.095 183.115 156.611 169.735 162.171 159.405C167.731 149.085 178.172 141.985 178.791 130.325C178.987 126.685 178.467 122.955 178.791 119.325C170.785 129.865 161.287 135.435 152.515 145.575C143.734 155.705 131.642 162.565 131.642 177.325Z" stroke="#F99067" stroke-width="0.3"/>
<path d="M178.791 130.325C179.292 127.205 180.117 123.185 179.773 119.325C179.773 119.325 179.125 119.555 178.791 119.325C178.467 122.955 178.987 126.685 178.791 130.325Z" stroke="#CF8275" stroke-width="0.3"/>
<path d="M303.539 134.325C303.853 134.685 305.474 137.015 305.503 137.325C306.289 133.975 309.324 131.915 310.414 129.325C307.615 130.285 305.592 132.465 303.539 134.325Z" stroke="#C07C74" stroke-width="0.3"/>
<path d="M243.62 138.325C243.778 138.495 239.77 144.405 238.385 146.995C237.01 149.595 232.462 153.545 231.863 157.355C231.264 161.155 229.692 166.165 227.914 169.335C226.136 172.505 225.694 177.865 223.975 180.325C225.35 179.855 227.678 181.785 228.886 182.325C227.02 180.225 228.307 176.855 227.904 174.325C231.097 180.345 237.854 179.635 243.62 178.325C242.844 183.225 237.059 184.655 232.815 184.325C242.108 193.145 240.055 215.725 224.957 219.325C230.154 225.295 228.395 239.195 237.727 240.325C236.165 251.935 247.844 251.605 254.425 254.325C258.629 254.325 263.01 254.695 267.195 254.325C277.361 253.415 286.644 248.185 294.698 242.325C290.799 250.455 285.003 258.725 277.017 263.325C290.042 264.985 306.299 264.995 319.255 263.325C320.551 261.435 319.255 253.735 319.255 251.325C319.255 246.325 319.255 241.325 319.255 236.325C328.793 236.835 336.356 230.905 342.829 224.325C348.3 216.035 342.819 207.735 343.811 200.325C338.438 197.445 329.185 196.095 322.889 200.025C316.583 203.945 311.004 205.275 305.503 210.325C311.092 196.795 301.161 187.995 299.609 175.325C298.057 162.655 300.022 148.245 305.503 137.325C305.474 137.015 303.853 134.685 303.539 134.325C295.671 140.645 289.011 148.955 285.858 158.325C271.743 151.715 257.942 144.255 243.62 138.325ZM247.549 160.325C243.64 159.035 238.346 157.375 233.798 157.325C238.13 153.755 245.084 155.095 247.549 160.325ZM284.876 174.325C281.536 170.545 275.799 167.575 271.124 168.325C275.279 163.605 284.895 168.105 284.876 174.325ZM283.893 187.325C281.83 197.525 261.684 197.015 263.266 185.325C269.149 190.315 277.096 189.955 283.893 187.325ZM285.858 196.325C308.902 200.135 302.016 241.445 278.324 235.995C254.632 230.545 261.134 192.235 285.858 196.325ZM341.847 205.325C336.503 207.295 330.973 210.125 327.113 214.325C331.238 214.555 336.336 217.535 335.953 222.325C329.235 210.695 319.736 219.845 316.308 228.325C317.251 217.535 331.052 203.765 341.847 205.325ZM262.283 208.325C259.985 218.055 244.18 217.385 241.656 208.325C247.893 213.955 256.262 214.595 262.283 208.325Z" stroke="#F89068" stroke-width="0.3"/>
<path d="M231.833 152.325C227.904 161.065 224.358 170.955 222.011 180.325C222.315 180.085 223.808 180.565 223.975 180.325C225.694 177.865 226.136 172.505 227.914 169.335C229.692 166.165 231.264 161.155 231.863 157.355C232.462 153.545 237.01 149.595 238.385 146.995C239.77 144.405 243.778 138.495 243.621 138.325C242.874 138.015 241.577 137.695 240.674 137.325C237.531 138.355 233.886 149.125 231.833 152.325Z" stroke="#EC9854" stroke-width="0.3"/>
<path d="M77.6178 145.325C69.5142 150.155 63.267 161.205 59.1807 169.555C55.0945 177.905 50.5172 191.955 48.1499 201.325C48.3464 203.195 46.5586 204.385 47.1676 206.325C48.7786 205.775 49.5644 203.525 50.1144 202.325C53.1005 195.825 54.515 187.925 56.7742 181.105C59.0236 174.275 62.8249 167.625 65.7521 161.245C68.6891 154.875 76.7927 152.095 79.5824 146.325C78.8064 144.095 80.987 144.765 77.6178 145.325Z" stroke="#472708" stroke-width="0.3"/>
<path d="M48.1498 201.325C50.5171 191.955 55.0944 177.905 59.1807 169.555C63.2669 161.205 69.5141 150.155 77.6178 145.325C49.417 150.005 46.7943 177.765 48.1498 201.325Z" stroke="#CAB157" stroke-width="0.3"/>
<path d="M50.1143 202.325C58.326 196.065 67.6772 193.315 75.4076 183.075C83.1478 172.835 83.8059 158.505 79.5822 146.325C76.7926 152.095 68.6889 154.875 65.7519 161.245C62.8248 167.625 59.0234 174.275 56.774 181.105C54.5148 187.925 53.1003 195.825 50.1143 202.325Z" stroke="#CBB455" stroke-width="0.3"/>
<path d="M180.755 159.325C185.637 158.435 192.002 157.915 195.715 161.095C199.428 164.275 203.033 167.935 206.373 170.245C209.713 172.545 217.335 178.485 211.206 181.325C211.206 181.325 211.029 182.255 211.206 182.325C213.642 183.335 214.614 185.755 214.152 188.325C214.977 186.235 218.248 186.835 218.081 184.325C216.117 186.135 214.054 184.405 213.17 182.325C215.272 180.765 216.176 178.895 217.099 176.325C212.129 172.175 206.471 167.655 201.609 164.095C196.747 160.535 190.156 153.475 183.702 155.325C183.054 156.445 181.58 157.995 180.755 159.325Z" stroke="#AB7818" stroke-width="0.3"/>
<path d="M247.55 160.325C245.084 155.095 238.13 153.755 233.798 157.325C238.346 157.375 243.64 159.035 247.55 160.325Z" stroke="#711C12" stroke-width="0.3"/>
<path d="M180.755 159.325C180.411 159.385 179.94 159.995 179.773 160.325C181.384 161.305 180.686 164.505 183.702 163.325C187.896 156.155 195.99 163.625 200.322 167.405C204.654 171.195 209.948 175.965 211.205 181.325C217.335 178.485 209.712 172.545 206.373 170.245C203.033 167.935 199.428 164.275 195.715 161.095C192.002 157.915 185.637 158.435 180.755 159.325Z" stroke="#E8964E" stroke-width="0.3"/>
<path d="M284.875 174.325C284.895 168.105 275.279 163.605 271.124 168.325C275.799 167.575 281.536 170.545 284.875 174.325Z" stroke="#6B190F" stroke-width="0.3"/>
<path d="M175.844 189.325C174.872 186.525 174.675 183.445 174.862 180.325C180.893 178.485 188.899 168.495 194.507 175.325C195.332 176.085 195.804 176.445 196.472 177.325C197.68 178.285 200.764 179.715 202.365 180.325C200.872 174.265 195.48 172.215 189.606 171.335C183.732 170.445 179.734 178.195 173.88 177.325C172.455 183.215 172.514 188.905 167.004 191.325C170.088 190.745 172.564 189.095 175.844 189.325Z" stroke="#EE9657" stroke-width="0.3"/>
<path d="M175.844 189.325C175.844 189.325 176.04 190.215 175.844 190.325C177.769 190.045 178.516 188.085 179.773 187.325C178.467 187.255 177.15 187.385 175.844 187.325C175.972 178.765 187.484 172.805 194.507 175.325C188.898 168.495 180.893 178.485 174.862 180.325C174.675 183.445 174.872 186.525 175.844 189.325Z" stroke="#B37422" stroke-width="0.3"/>
<path d="M106.103 204.325C101.919 203.495 98.3925 201.395 95.2983 198.325C91.9095 179.295 113.873 171.405 127.713 180.325C128.921 178.775 131.534 181.125 130.66 177.325C130.316 177.295 129.727 176.675 129.678 176.325C123.224 175.235 124.03 175.485 116.908 174.325C109.787 173.165 100.72 174.955 96.5851 181.635C92.4399 188.305 92.5676 197.365 97.0173 203.575C101.477 209.775 103.579 204.165 106.103 204.325Z" stroke="#F1E7BA" stroke-width="0.3"/>
<path d="M179.773 187.325C184.92 184.235 193.407 181.745 199.419 181.325C198.584 181.045 197.012 178.045 196.472 177.325C195.804 176.445 195.332 176.085 194.507 175.325C187.484 172.805 175.972 178.765 175.844 187.325C177.151 187.385 178.467 187.255 179.773 187.325Z" stroke="#9F7F12" stroke-width="0.3"/>
<path d="M228.886 182.325C230.379 182.985 231.725 183.295 232.815 184.325C237.059 184.655 242.844 183.225 243.62 178.325C237.854 179.635 231.096 180.345 227.904 174.325C228.307 176.855 227.02 180.225 228.886 182.325Z" stroke="#58160B" stroke-width="0.3"/>
<path d="M106.103 204.325C102.115 193.065 120.68 189.485 114.944 203.325C114.649 204.045 114.403 204.665 113.961 205.325C113.932 205.705 115.926 208.995 115.926 209.325C119.246 205.005 121.967 203.085 122.802 198.325C123.381 195.025 124.167 191.145 128.695 192.325C129.933 186.915 131.642 183.315 131.642 177.325C131.642 177.325 131.151 177.375 130.66 177.325C131.534 181.125 128.921 178.775 127.713 180.325C113.873 171.405 91.9094 179.295 95.2982 198.325C98.3923 201.395 101.919 203.495 106.103 204.325Z" stroke="#F8EBE1" stroke-width="0.3"/>
<path d="M199.418 181.325C201.01 181.215 202.729 181.245 204.33 181.325C204.153 181.265 202.739 180.465 202.365 180.325C200.764 179.715 197.68 178.285 196.472 177.325C197.012 178.045 198.584 181.045 199.418 181.325Z" stroke="#AF7533" stroke-width="0.3"/>
<path d="M179.773 187.325C178.516 188.085 177.769 190.045 175.844 190.325C171.492 192.405 165.343 191.595 162.092 195.325C178.702 196.305 195.401 175.705 212.188 186.325C197.434 195.165 184.065 203.045 175.107 219.575C166.149 236.105 143.802 234.705 133.606 248.325C136.072 248.775 137.781 246.765 139.5 245.325C147.987 238.235 161.925 239.235 169.214 230.575C176.492 221.905 181.845 215.175 188.859 206.575C195.872 197.975 205.548 193.865 214.152 188.325C214.614 185.755 213.641 183.335 211.205 182.325C208.72 182.135 206.854 181.455 204.33 181.325C202.728 181.245 201.009 181.215 199.418 181.325C193.407 181.745 184.92 184.235 179.773 187.325Z" stroke="#5E210C" stroke-width="0.3"/>
<path d="M283.893 187.325C277.096 189.955 269.149 190.315 263.266 185.325C261.684 197.015 281.83 197.525 283.893 187.325Z" stroke="#4A0B06" stroke-width="0.3"/>
<path d="M122.802 198.325C123.391 199.455 124.472 198.475 124.766 198.325C126.338 195.785 123.804 192.985 128.695 193.325C128.695 193.325 128.587 192.795 128.695 192.325C124.167 191.145 123.381 195.025 122.802 198.325Z" stroke="#503228" stroke-width="0.3"/>
<path d="M106.103 204.325C106.624 205.795 107.763 205.315 108.067 205.325C108.166 204.845 108.254 203.735 108.067 203.325C103.971 194.175 119.776 192.335 112.979 203.325C112.753 203.685 112.979 204.325 112.979 204.325C113.49 204.065 114.57 203.825 114.943 203.325C120.68 189.485 102.115 193.065 106.103 204.325Z" stroke="#403124" stroke-width="0.3"/>
<path d="M124.766 198.325C126.731 197.335 127.968 195.375 128.695 193.325C123.803 192.985 126.338 195.785 124.766 198.325Z" stroke="#FDD5C4" stroke-width="0.3"/>
<path d="M108.067 203.325C108.902 201.965 111.967 202.675 112.979 203.325C119.776 192.335 103.971 194.175 108.067 203.325Z" stroke="#EBE0D5" stroke-width="0.3"/>
<path d="M285.858 196.325C261.134 192.235 254.631 230.545 278.324 235.995C302.016 241.445 308.902 200.135 285.858 196.325Z" stroke="#F84407" stroke-width="0.3"/>
<path d="M108.068 203.325C108.255 203.735 108.166 204.845 108.068 205.325C110.052 205.365 111.27 205.185 112.979 204.325C112.979 204.325 112.753 203.685 112.979 203.325C111.967 202.675 108.903 201.965 108.068 203.325Z" stroke="#F3EABD" stroke-width="0.3"/>
<path d="M341.847 205.325C331.052 203.765 317.251 217.535 316.308 228.325C319.736 219.845 329.235 210.695 335.953 222.325C336.336 217.535 331.239 214.555 327.113 214.325C330.973 210.125 336.503 207.295 341.847 205.325Z" stroke="#68190E" stroke-width="0.3"/>
<path d="M111.015 214.325C111.005 214.825 111.015 215.325 111.015 215.325C113.765 214.155 114.305 211.435 115.926 209.325C115.926 208.995 113.932 205.705 113.961 205.325C112.115 208.095 111.103 210.665 111.015 214.325Z" stroke="#F4DBA6" stroke-width="0.3"/>
<path d="M262.283 208.325C256.262 214.595 247.893 213.955 241.656 208.325C244.18 217.385 259.985 218.055 262.283 208.325Z" stroke="#6D190E" stroke-width="0.3"/>
<path d="M358.545 227.325C376.148 223.185 394.329 220.325 410.605 212.325C411.273 250.425 398.887 286.025 379.173 317.325C377.935 319.435 376.668 321.345 375.244 323.325C381.609 319.135 386.452 310.375 390.705 301.065C394.968 291.765 399.417 284.505 402.816 274.395C406.225 264.295 408.071 253.505 410.615 243.335C413.159 233.155 412.766 219.375 414.534 210.325C411.097 208.825 405.115 207.135 405.694 213.325C398.592 214.865 387.404 217.205 381.383 220.525C375.352 223.835 361.61 221.235 358.545 227.325Z" stroke="#F7F0CB" stroke-width="0.3"/>
<path d="M358.546 227.325C358.084 227.435 357.062 227.385 356.581 227.325C371.541 234.855 379.979 255.875 375.254 271.335C370.529 286.795 350.913 302.315 334.971 296.325C326.946 300.275 340.226 305.065 344.863 305.255C349.509 305.445 357.337 309.045 362.16 310.645C366.983 312.245 373.751 314.465 378.191 317.325C378.544 317.555 379.173 317.325 379.173 317.325C398.887 286.025 411.274 250.425 410.606 212.325C394.329 220.325 376.148 223.185 358.546 227.325Z" stroke="#9F8211" stroke-width="0.3"/>
<path d="M29.4867 226.325C29.4867 222.245 28.8285 217.725 28.5044 214.325C28.5044 218.405 29.1625 222.925 29.4867 226.325Z" stroke="#A19B52" stroke-width="0.3"/>
<path d="M90.3871 238.325C91.0648 238.775 91.556 239.805 92.3516 240.325C94.6894 230.655 109.158 225.035 111.015 215.325C111.015 215.325 111.005 214.825 111.015 214.325C108.294 214.905 101.28 223.375 99.5221 225.625C97.7737 227.875 90.3281 236.195 90.3871 238.325Z" stroke="#B87C22" stroke-width="0.3"/>
<path d="M222.993 221.325C224.152 223.535 224.712 224.445 223.975 226.325C223.808 226.755 224.22 228.115 223.975 228.325C225.576 228.635 226.745 228.375 223.975 230.325C224.24 231.115 226.214 232.755 226.922 233.325C229.318 235.245 231.931 239.825 233.798 244.325C235.349 247.315 238.994 249.815 239.691 253.325C244.445 252.935 248.581 255.065 253.443 254.325C253.934 254.325 254.425 254.325 254.425 254.325C247.844 251.605 236.165 251.935 237.727 240.325C228.395 239.195 230.153 225.295 224.957 219.325C224.957 219.325 224.466 219.275 223.975 219.325C222.983 219.415 222.885 220.575 222.993 221.325Z" stroke="#EA9755" stroke-width="0.3"/>
<path d="M319.255 251.325C319.53 254.235 321.966 260.565 319.255 263.325C306.299 264.995 290.042 264.985 277.017 263.325C285.003 258.725 290.799 250.455 294.698 242.325C286.644 248.185 277.361 253.415 267.195 254.325C263.541 255.085 258.747 255.835 254.425 255.325C253.846 258.165 255.624 262.305 253.443 264.325C252.451 265.215 250.182 263.995 248.65 264.425C247.117 264.855 248.581 266.215 248.532 266.325C254.887 269.465 264.945 264.855 272.106 266.325C279.267 267.795 288.186 265.565 295.68 266.325C303.175 267.085 311.672 265.755 319.255 266.325C318.223 280.565 317.202 296.775 318.273 310.325C319.942 313.375 325.482 317.055 328.095 319.325C341.965 331.395 330.03 348.645 334.971 364.325C335.089 364.065 335.698 363.445 335.953 363.325C336.788 357.415 336.346 350.315 335.953 344.325C335.56 338.335 337.643 330.055 335.953 324.325C331.857 315.415 317.29 313.915 319.255 302.325C321.219 290.735 320.001 277.225 321.219 265.325C335.423 265.545 326.091 289.245 334.971 296.325C350.913 302.315 370.529 286.795 375.254 271.335C379.978 255.875 371.541 234.855 356.581 227.325C352.21 226.765 347.465 223.145 342.829 224.325C336.356 230.905 328.793 236.835 319.255 236.325C319.255 241.325 319.255 246.325 319.255 251.325Z" stroke="#350303" stroke-width="0.3"/>
<path d="M180.755 265.325C187.16 257.685 192.955 252.275 199.173 244.075C205.4 235.875 216.991 234.285 223.975 228.325C224.221 228.115 223.808 226.755 223.975 226.325C216.588 222.985 206.167 229.285 200.106 232.025C194.036 234.755 188.712 241.665 185.588 247.245C182.474 252.835 184.645 254.095 181.512 258.095C178.378 262.095 180.569 266.095 180.755 265.325Z" stroke="#CAB258" stroke-width="0.3"/>
<path d="M223.975 228.325C216.991 234.285 205.4 235.875 199.173 244.075C192.955 252.275 187.16 257.685 180.755 265.325C179.793 268.025 175.805 269.175 175.844 272.325C177.111 272.155 177.563 270.625 178.791 270.325C186.796 264.065 190.991 254.895 198.191 247.075C205.4 239.255 215.979 235.965 223.975 230.325C226.745 228.375 225.576 228.635 223.975 228.325Z" stroke="#452408" stroke-width="0.3"/>
<path d="M178.791 270.325C185.431 268.705 196.167 267.755 202.149 265.105C208.131 262.455 216.569 259.715 219.751 254.025C222.924 248.335 228.926 239.465 226.922 233.325C226.215 232.755 224.24 231.115 223.975 230.325C215.98 235.965 205.401 239.255 198.191 247.075C190.991 254.895 186.796 264.065 178.791 270.325Z" stroke="#CBB355" stroke-width="0.3"/>
<path d="M86.458 239.325C91.6738 239.225 97.0566 246.625 102.253 248.245C107.439 249.875 112.242 255.475 117.596 257.635C122.939 259.785 128.145 265.055 133.607 267.325C122.979 292.295 112.134 317.135 102.174 342.325C111.074 332.275 113.902 315.775 120.837 303.325C126.004 290.965 130.955 278.605 136.554 266.325C134.668 265.805 133.125 264.205 131.642 263.325C118.598 255.605 105.082 248.605 92.3516 240.325C91.556 239.805 91.0648 238.775 90.3871 238.325C86.8804 235.965 86.7625 239.105 86.458 239.325Z" stroke="#59210A" stroke-width="0.3"/>
<path d="M45.2025 286.325C42.3343 293.085 38.6213 300.275 34.0931 307.015C29.5747 313.765 24.9286 319.915 22.8265 328.545C20.7245 337.175 16.3829 342.805 14.7523 351.325C13.1316 359.855 12.2967 370.875 15.99 379.065C19.6735 387.265 25.5081 391.655 30.4686 397.325C68.2759 410.755 109.521 395.375 146.376 386.325C148.055 386.055 149.44 385.055 151.287 385.325C151.287 381.845 149.912 373.645 152.269 371.325C152.525 371.075 153.252 371.325 153.252 371.325C155.737 373.775 154.764 386.575 154.234 390.325C166.709 393.955 176.62 398.765 190.362 400.545C204.094 402.325 219.142 403.325 233.797 403.325C249.317 401.795 265.682 397.265 280.946 393.325C281.093 391.915 281.594 389.985 282.911 389.325C287.223 382.235 289.099 381.195 297.645 382.325C304.294 383.205 311.033 377.925 316.553 374.575C322.073 371.215 321.494 369.865 325.374 368.555C329.254 367.245 331.533 361.365 333.988 362.325C332.633 351.155 337.141 337.055 333.988 326.325C331.808 320.325 321.111 316.495 318.272 310.325C317.201 296.775 318.223 280.565 319.254 266.325C311.671 265.755 303.175 267.085 295.68 266.325C288.185 265.565 279.266 267.795 272.106 266.325C264.945 264.855 254.887 269.465 248.531 266.325C246.537 270.945 248.246 276.615 246.567 281.325C231.42 281.575 212.335 282.805 197.454 282.325C182.572 281.845 165.284 282.115 153.32 288.395C141.366 294.675 129.942 295.835 120.837 303.325C113.902 315.775 111.073 332.275 102.174 342.325C112.134 317.135 122.978 292.295 133.606 267.325C128.145 265.055 122.939 259.785 117.595 257.635C112.242 255.475 107.439 249.875 102.252 248.245C97.0563 246.625 91.6735 239.225 86.4576 239.325C78.3932 245.165 70.4467 253.535 64.1111 261.575C57.7657 269.615 49.22 276.855 45.2025 286.325ZM223.975 340.325C235.035 343.345 229.416 362.455 218.081 358.325C206.746 354.195 213.121 337.355 223.975 340.325ZM294.698 340.325C305.866 342.555 301.485 362.065 289.786 358.325C278.088 354.585 283.618 338.115 294.698 340.325ZM223.975 381.325C234.161 384.105 230.133 402.635 218.985 399.395C207.846 396.155 212.05 378.065 223.975 381.325Z" stroke="#FDC15B" stroke-width="0.3"/>
<path d="M253.443 256.325C253.443 255.825 253.217 254.485 253.443 254.325C248.581 255.065 244.446 252.935 239.691 253.325C238.994 249.815 235.35 247.315 233.798 244.325C236.656 251.235 244.377 259.505 253.443 256.325Z" stroke="#B1761B" stroke-width="0.3"/>
<path d="M319.255 263.325C321.966 260.565 319.53 254.235 319.255 251.325C319.255 253.735 320.551 261.435 319.255 263.325Z" stroke="#863A29" stroke-width="0.3"/>
<path d="M253.443 256.325C253.443 258.995 253.443 261.655 253.443 264.325C255.624 262.305 253.846 258.165 254.425 255.325C258.747 255.835 263.541 255.085 267.195 254.325C263.01 254.695 258.63 254.325 254.425 254.325C254.425 254.325 253.934 254.325 253.443 254.325C253.217 254.485 253.443 255.825 253.443 256.325Z" stroke="#793B1F" stroke-width="0.3"/>
<path d="M335.953 324.325C339.744 332.585 336.935 348.775 336.935 358.325C337.083 358.925 338.183 360.905 338.9 361.325C344.283 355.265 353.83 348.495 359.822 340.625C365.814 332.765 373.112 325.765 378.19 317.325C373.751 314.465 366.983 312.245 362.16 310.645C357.337 309.045 349.508 305.445 344.862 305.255C340.226 305.065 326.946 300.275 334.971 296.325C326.091 289.245 335.423 265.545 321.219 265.325C320.001 277.225 321.219 290.735 319.254 302.325C317.29 313.915 331.857 315.415 335.953 324.325Z" stroke="#F9C05F" stroke-width="0.3"/>
<path d="M144.412 388.325C144.992 388.095 145.856 386.605 146.377 386.325C109.522 395.375 68.2766 410.755 30.4693 397.325C25.5088 391.655 19.6742 387.265 15.9907 379.065C12.2974 370.875 13.1323 359.855 14.753 351.325C16.3836 342.805 20.7252 337.175 22.8273 328.545C24.9293 319.915 29.5754 313.765 34.0938 307.015C38.6221 300.275 42.335 293.085 45.2033 286.325C45.1148 286.105 43.4646 285.655 43.2387 285.325C43.1405 295.145 30.538 303.685 27.4439 313.245C24.3498 322.805 16.4622 332.775 14.6843 343.255C12.8966 353.735 9.11485 371.145 13.8494 381.245C18.5839 391.335 26.3045 397.795 36.6772 401.005C47.0499 404.215 65.2316 404.815 76.6357 403.325C88.0398 401.825 102.116 400.305 112.901 397.245C123.696 394.195 134.933 392.075 144.412 388.325Z" stroke="#EBC77B" stroke-width="0.3"/>
<path d="M333.989 326.325C333.37 324.215 329.569 320.825 328.095 319.325C325.482 317.055 319.942 313.375 318.272 310.325C321.111 316.495 331.808 320.325 333.989 326.325Z" stroke="#DEA77D" stroke-width="0.3"/>
<path d="M336.935 358.325C336.935 359.715 336.493 362.015 336.935 363.325C336.935 363.325 337.574 363.555 337.917 363.325C344.194 359.235 351.109 351.725 356.335 346.075C361.57 340.425 369.537 334.425 373.279 327.325C374.104 325.325 374.026 325.025 375.244 323.325C376.668 321.345 377.935 319.435 379.173 317.325C379.173 317.325 378.544 317.555 378.19 317.325C373.112 325.765 365.814 332.765 359.822 340.625C353.83 348.495 344.283 355.265 338.9 361.325C338.183 360.905 337.083 358.925 336.935 358.325Z" stroke="#F2DAA3" stroke-width="0.3"/>
<path d="M333.989 326.325C337.142 337.055 332.633 351.155 333.989 362.325C334.175 363.905 334.274 363.255 334.971 364.325C330.03 348.645 341.965 331.395 328.095 319.325C329.569 320.825 333.37 324.215 333.989 326.325Z" stroke="#B87F64" stroke-width="0.3"/>
<path d="M335.953 363.325C335.953 363.325 336.444 363.325 336.936 363.325C336.494 362.015 336.936 359.715 336.936 358.325C336.936 348.775 339.745 332.585 335.953 324.325C337.643 330.055 335.56 338.335 335.953 344.325C336.346 350.315 336.788 357.415 335.953 363.325Z" stroke="#814B19" stroke-width="0.3"/>
<path d="M337.918 363.325C339.401 369.885 343.144 362.565 342.829 359.325C353.693 352.555 367.907 340.305 373.279 327.325C369.537 334.425 361.571 340.425 356.335 346.075C351.11 351.725 344.195 359.235 337.918 363.325Z" stroke="#FDFADE" stroke-width="0.3"/>
<path d="M223.975 340.325C213.121 337.355 206.746 354.195 218.081 358.325C229.417 362.455 235.035 343.345 223.975 340.325ZM222.993 342.325C231.519 344.225 227.943 359.115 219.064 356.325C210.184 353.525 214.653 340.465 222.993 342.325Z" stroke="#561F09" stroke-width="0.3"/>
<path d="M294.698 340.325C283.618 338.115 278.088 354.585 289.786 358.325C301.485 362.065 305.866 342.555 294.698 340.325ZM294.698 342.325C303.577 344.615 298.313 359.915 289.786 356.325C281.26 352.735 286.083 340.105 294.698 342.325Z" stroke="#56200E" stroke-width="0.3"/>
<path d="M222.993 342.325C214.653 340.465 210.184 353.525 219.064 356.325C227.943 359.115 231.519 344.225 222.993 342.325Z" stroke="#F4BD69" stroke-width="0.3"/>
<path d="M294.698 342.325C286.083 340.105 281.261 352.735 289.787 356.325C298.313 359.915 303.578 344.615 294.698 342.325Z" stroke="#F0BB67" stroke-width="0.3"/>
<path d="M297.645 382.325C298.598 382.985 299.747 385.155 299.61 386.325C305.1 382.805 312.399 380.655 317.978 377.025C323.547 373.385 328.861 367.355 334.971 365.325C334.971 365.325 335.197 364.675 334.971 364.325C334.274 363.255 334.175 363.905 333.989 362.325C331.533 361.365 329.254 367.245 325.374 368.555C321.494 369.865 322.074 371.215 316.554 374.575C311.033 377.925 304.295 383.205 297.645 382.325Z" stroke="#EBCB88" stroke-width="0.3"/>
<path d="M299.61 386.325C299.256 386.555 298.627 386.325 298.627 386.325C297.38 387.635 296.339 387.665 294.698 388.325C300.179 386.725 311.996 385.325 317.064 380.095C322.133 374.865 334.244 373.205 334.971 365.325C328.861 367.355 323.547 373.385 317.978 377.025C312.399 380.655 305.1 382.805 299.61 386.325Z" stroke="#FDF9DD" stroke-width="0.3"/>
<path d="M151.287 385.325C151.287 386.795 150.904 388.915 151.287 390.325C151.386 390.675 151.926 391.295 152.27 391.325C151.71 385.015 151.71 377.635 152.27 371.325C149.912 373.645 151.287 381.845 151.287 385.325Z" stroke="#6D351B" stroke-width="0.3"/>
<path d="M152.27 391.325C152.27 391.325 152.761 391.375 153.252 391.325C153.812 385.015 153.812 377.635 153.252 371.325C153.252 371.325 152.525 371.075 152.27 371.325C151.71 377.635 151.71 385.015 152.27 391.325Z" stroke="#3C0500" stroke-width="0.3"/>
<path d="M153.252 391.325C153.596 391.295 154.185 390.675 154.234 390.325C154.765 386.575 155.737 373.775 153.252 371.325C153.812 377.635 153.812 385.015 153.252 391.325Z" stroke="#C6945D" stroke-width="0.3"/>
<path d="M223.975 381.325C212.05 378.065 207.846 396.155 218.985 399.395C230.134 402.635 234.161 384.105 223.975 381.325ZM222.993 383.325C231.509 385.225 227.992 400.285 219.063 397.325C210.125 394.365 214.712 381.485 222.993 383.325Z" stroke="#571D0C" stroke-width="0.3"/>
<path d="M282.911 389.325C282.832 390.825 282.783 392.695 284.876 392.325C284.267 384.625 293.549 380.205 298.627 386.325C298.627 386.325 299.256 386.555 299.61 386.325C299.747 385.155 298.598 382.985 297.645 382.325C289.099 381.195 287.223 382.235 282.911 389.325Z" stroke="#59270E" stroke-width="0.3"/>
<path d="M222.993 383.325C214.713 381.485 210.125 394.365 219.064 397.325C227.993 400.285 231.509 385.225 222.993 383.325ZM222.993 384.325C228.838 385.925 227.256 396.985 220.361 395.985C213.465 394.985 215.498 382.275 222.993 384.325Z" stroke="#EBB584" stroke-width="0.3"/>
<path d="M282.911 389.325C281.595 389.985 281.094 391.915 280.947 393.325C265.682 397.265 249.318 401.795 233.798 403.325C248.728 403.325 263.128 399.215 277.017 395.325C284.404 393.255 288.186 390.925 294.698 388.325C296.339 387.665 297.38 387.635 298.627 386.325C293.549 380.205 284.267 384.625 284.876 392.325C282.783 392.695 282.833 390.825 282.911 389.325Z" stroke="#ECCE94" stroke-width="0.3"/>
<path d="M222.993 384.325C215.499 382.275 213.465 394.985 220.361 395.985C227.256 396.985 228.838 385.925 222.993 384.325Z" stroke="#F5C456" stroke-width="0.3"/>
<path d="M146.376 386.325C145.856 386.605 144.991 388.095 144.412 388.325C146.71 388.705 149.048 389.705 151.287 390.325C150.904 388.915 151.287 386.795 151.287 385.325C149.441 385.055 148.056 386.055 146.376 386.325Z" stroke="#9D7F27" stroke-width="0.3"/>
<path d="M390.96 81.3253C388.583 71.6953 384.831 61.3253 378.289 54.2253C371.747 47.1253 363.859 39.6852 353.653 39.3052C343.448 38.9152 331.366 37.1252 323.262 30.2452C315.149 23.3752 306.711 21.3753 296.888 17.0953C287.066 12.8153 277.872 10.1752 267.214 7.30524C256.566 4.42524 244.819 3.31528 233.473 1.65528C222.128 -0.00472426 207.414 1.83528 196.491 3.34528C185.578 4.86528 174.125 7.29526 164.057 10.3253C153.998 13.3553 144.352 16.2752 135.316 21.0652C126.289 25.8652 117.527 29.4953 109.737 35.0253C101.958 40.5553 95.0624 46.4453 87.6856 52.5753C80.299 58.7053 74.4644 64.8353 68.0404 72.5753C61.6163 80.3053 56.538 86.7753 50.8704 95.0953C45.2027 103.415 40.8513 111.305 36.6766 120.645C32.5118 129.985 29.3195 139.215 25.4886 149.255C21.648 159.285 21.4417 171.675 18.9959 182.645C16.5599 193.625 18.4163 209.805 17.6993 221.325C16.9822 232.845 21.5105 246.055 22.6204 256.315C23.7304 266.575 32.7672 278.165 29.3882 287.225C26.0092 296.295 18.5244 303.765 13.7702 310.325C9.06518 327.375 1.06954 343.925 1.00079 362.325C0.932026 380.725 5.36204 397.135 21.4024 406.555C37.4428 415.975 56.1746 417.255 74.6706 415.325C93.1667 413.395 111.172 410.835 128.479 405.105C145.777 399.375 160.108 406.175 177.74 410.395C195.361 414.615 217.924 417.025 235.762 414.325C253.6 411.625 274.316 411.135 289.541 404.075C304.766 397.015 318.321 390.915 331.778 382.075C345.235 373.245 355.53 364.465 366.649 352.575C377.758 340.675 386.343 330.075 394.958 316.395C403.582 302.725 409.201 286.925 413.778 270.555C418.355 254.185 424.475 234.725 423.375 216.325C441.723 205.565 445.633 172.295 426.321 159.325C433.816 143.795 436.007 122.505 428.61 106.995C421.214 91.4952 408.258 81.6553 390.96 81.3253ZM262.283 18.3253C262.548 18.5353 262.931 19.1653 263.265 19.3253C268.855 17.6253 275.554 18.9753 280.691 21.5853C285.838 24.1953 289.826 25.0552 294.776 27.2452C299.727 29.4452 304.403 32.5253 309.186 34.5753C313.97 36.6253 318.203 40.4252 323.262 42.2452C328.311 44.0752 331.592 51.1453 335.953 52.3253C361.089 43.2253 378.888 70.7853 380.155 92.3253C396.451 91.6853 414.171 98.2552 419.229 115.545C424.278 132.845 416.145 151.305 409.623 166.325C416.371 167.325 421.371 170.495 424.327 176.355C427.274 182.225 425.958 191.155 424.367 197.335C422.766 203.505 415.418 206.255 414.534 210.325C412.766 219.375 413.159 233.155 410.615 243.335C408.071 253.505 406.224 264.295 402.816 274.395C399.417 284.505 394.967 291.765 390.704 301.065C386.451 310.375 381.609 319.135 375.244 323.325C374.026 325.025 374.104 325.325 373.279 327.325C367.906 340.305 353.693 352.555 342.829 359.325C343.143 362.565 339.401 369.885 337.918 363.325C337.574 363.555 336.935 363.325 336.935 363.325C336.444 363.325 335.953 363.325 335.953 363.325C335.698 363.445 335.089 364.065 334.971 364.325C335.197 364.675 334.971 365.325 334.971 365.325C334.244 373.205 322.133 374.865 317.064 380.095C311.996 385.325 300.179 386.725 294.698 388.325C288.185 390.925 284.404 393.255 277.017 395.325C262.568 401.105 247.755 407.035 231.165 405.985C214.575 404.935 194.919 404.715 178.771 402.345C162.613 399.985 151.69 388.095 136.485 392.255C121.269 396.415 105.622 402.045 89.4046 403.325C73.1874 404.605 52.0884 408.005 36.1462 403.545C20.2041 399.085 11.6485 387.305 9.84117 371.325C8.0338 355.345 13.1514 337.995 19.5852 324.245C26.0191 310.485 32.5413 298.935 41.2736 287.325C34.5844 266.815 29.7615 247.395 27.5219 225.325C25.2824 203.255 26.9129 177.375 32.4234 157.315C37.9438 137.265 44.8884 121.145 55.929 104.245C66.9599 87.3352 75.7609 74.5953 90.4163 62.3553C105.082 50.1253 117.252 38.6653 135.276 31.0253C153.291 23.3753 172.838 15.7253 193.593 13.3953C214.358 11.0653 243.129 10.8353 262.283 18.3253Z" fill="#FCFDFA"/>
<path d="M376.226 322.825L336.936 363.825L338.409 372.325C364.296 350.181 373.276 339.185 376.226 322.825Z" fill="#FCFDFA"/>
<path d="M28.5044 213.708C28.8285 217.108 29.4867 221.628 29.4867 225.708C29.4867 235.608 31.2253 248.758 34.4667 257.638C37.718 266.508 38.0717 277.108 43.2384 284.708C43.4643 285.038 45.1145 285.488 45.2029 285.708C49.2204 276.238 57.7661 268.998 64.1115 260.958C70.4471 252.918 78.3936 244.548 86.458 238.708C86.7625 238.488 86.8804 235.348 90.3871 237.708C90.3281 235.578 97.7737 227.258 99.5221 225.008C101.28 222.758 108.294 214.288 111.015 213.708C111.103 210.048 112.115 207.478 113.961 204.708C114.403 204.048 114.649 203.428 114.944 202.708C114.57 203.208 113.49 203.448 112.979 203.708C111.27 204.568 110.052 204.748 108.068 204.708C107.763 204.698 106.624 205.178 106.103 203.708C103.579 203.548 101.477 209.158 97.0173 202.958C92.5677 196.748 92.44 187.688 96.5852 181.018C100.72 174.338 109.787 172.548 116.908 173.708C124.03 174.868 123.224 174.618 129.678 175.708C128.735 169.058 130.1 157.028 138.518 157.708C145.6 146.018 154.45 137.398 164.057 131.708C165.393 125.058 173.938 120.638 178.791 116.708C180.019 115.248 184.616 115.148 185.667 115.708C186.158 115.658 186.649 115.708 186.649 115.708C187.14 115.708 187.631 115.708 187.631 115.708C194.262 116.128 195.047 130.708 192.611 135.778C190.185 140.848 186.639 149.638 183.702 154.708C190.156 152.858 196.747 159.918 201.609 163.478C206.471 167.038 212.129 171.558 217.099 175.708C216.176 178.278 215.272 180.148 213.17 181.708C214.054 183.788 216.117 185.518 218.081 183.708C218.248 186.218 214.978 185.618 214.152 187.708C205.548 193.248 195.872 197.358 188.859 205.958C181.846 214.558 176.492 221.288 169.214 229.958C161.925 238.618 147.987 237.618 139.5 244.708C136.229 248.678 128.499 257.448 131.642 262.708C133.125 263.588 134.668 265.188 136.554 265.708C130.955 277.988 126.004 290.348 120.837 302.708C129.943 295.218 141.367 294.058 153.321 287.778C165.285 281.498 182.573 281.228 197.454 281.708C212.335 282.188 231.421 280.958 246.567 280.708C248.247 275.998 246.538 270.328 248.532 265.708C248.581 265.598 247.117 264.238 248.65 263.808C250.182 263.378 252.451 264.598 253.443 263.708C253.443 261.038 253.443 258.378 253.443 255.708C244.377 258.888 236.656 250.618 233.798 243.708C231.931 239.208 229.319 234.628 226.922 232.708C228.926 238.848 222.924 247.718 219.751 253.408C216.569 259.098 208.131 261.838 202.149 264.488C196.167 267.138 185.431 268.088 178.791 269.708C177.563 270.008 177.111 271.538 175.844 271.708C175.805 268.558 179.793 267.408 180.755 264.708C180.569 265.478 178.378 261.478 181.512 257.478C184.645 253.478 182.474 252.218 185.588 246.628C188.712 241.048 194.036 234.138 200.106 231.408C206.167 228.668 216.588 222.368 223.975 225.708C224.712 223.828 224.152 222.918 222.993 220.708C221.441 217.758 220.39 216.608 220.046 212.708C215.734 191.498 220.36 169.628 231.833 151.708C233.886 148.508 237.53 137.738 240.674 136.708C238.463 135.818 236.646 132.798 233.798 132.708C245.958 117.268 266.487 104.368 286.84 108.708C286.604 108.638 286.202 107.838 285.858 107.708C283.166 106.708 295.454 101.088 295.464 95.4882C295.474 89.8882 300.68 81.7382 303.313 76.4782C305.945 71.2182 311.053 66.3081 315.571 61.9581C320.09 57.5981 326.818 53.7081 333.006 52.7081C314.53 35.0081 288.146 24.6781 263.266 18.7081C262.932 18.5481 262.549 17.9181 262.283 17.7081C202.424 7.62814 140.483 19.5581 95.0528 60.4581C49.6231 101.358 28.5044 152.968 28.5044 213.708ZM208.259 37.7081C207.905 48.6581 209.163 60.1681 199.644 69.9381C190.126 79.7081 179.046 80.0581 167.986 85.7081C167.043 86.8681 166.061 89.0381 164.057 88.7081C163.615 86.3981 166.542 85.6381 167.004 83.7081C170.265 73.0981 167.878 60.5082 176.6 50.4782C185.323 40.4482 194.242 37.3281 206.294 36.7081C207.699 36.0781 208.465 34.3681 210.223 34.7081C211.029 36.7181 208.436 36.1781 208.259 37.7081ZM272.106 82.7081C271.733 82.4981 271.124 82.7081 271.124 82.7081C268.481 84.7781 264.051 82.3081 261.301 80.7081C261.409 81.1781 261.301 81.7081 261.301 81.7081C261.301 91.1181 260.555 95.7682 251.469 93.7182C242.393 91.6582 244.622 84.6681 248.532 79.7081C248.296 79.4081 248.532 78.7081 248.532 78.7081C248.286 78.4581 247.549 78.7081 247.549 78.7081C245.054 79.9481 243.984 79.8681 241.656 79.7081C241.636 80.0481 241.017 80.6381 240.674 80.7081C228.356 83.0081 224.653 68.8482 229.653 58.4882C234.642 48.1182 247.353 49.4981 257.382 50.6981C267.411 51.8981 275.397 55.1782 282.223 62.4082C289.05 69.6282 281.29 87.8981 272.106 82.7081ZM135.571 120.708C135.473 120.698 133.587 119.678 133.607 119.708C131.387 122.038 126.692 119.388 124.766 117.708C124.275 117.758 123.784 117.708 123.784 117.708C123.293 117.708 122.802 117.708 122.802 117.708C124.55 125.228 126.358 132.278 116.692 130.928C107.027 129.588 107.243 124.688 110.032 116.708C108.127 116.088 106.958 117.908 105.121 117.708C105.052 117.708 103.137 116.658 103.157 116.708C97.2138 122.898 88.3538 109.168 90.3871 102.708C92.4204 96.2481 95.2493 86.5681 104.139 86.7081C113.038 86.8481 122.743 87.4281 130.68 89.6881C138.616 91.9381 143.783 95.8681 146.69 103.388C149.608 110.908 144.313 121.698 135.571 120.708ZM79.5822 145.708C83.8059 157.888 83.1478 172.218 75.4075 182.458C67.6771 192.698 58.3259 195.448 50.1142 201.708C49.5641 202.908 48.7783 205.158 47.1674 205.708C46.5584 203.768 48.3461 202.578 48.1497 200.708C46.7942 177.148 49.4168 149.388 77.6176 144.708C80.9868 144.148 78.8062 143.478 79.5822 145.708Z" fill="#9F8209"/>
<path d="M264.739 20.3252C266.213 20.3252 266.213 18.3252 266.213 18.3252L259.337 12.8252H227.413C227.413 12.8252 263.266 20.3252 264.739 20.3252Z" fill="#FCFDFA"/>
<path d="M219.063 205.325C220.97 182.909 223.512 169.83 232.324 150.825L223.975 157.825C218.665 178.397 219.125 188.961 219.063 205.325Z" fill="#9F8209"/>
<path d="M263.266 19.3254C288.146 25.2954 314.53 35.6254 333.006 53.3254C326.818 54.3254 320.09 58.2154 315.571 62.5754C311.053 66.9254 305.945 71.8354 303.313 77.0954C300.68 82.3554 295.474 90.5055 295.464 96.1055C295.454 101.705 283.166 107.325 285.858 108.325C287.449 104.425 295.936 104.755 296.653 98.3154C297.37 91.8854 299.482 89.6554 302.478 83.2454C305.483 76.8454 305.169 76.5154 311.475 70.4054C317.781 64.3054 327.368 55.4354 335.953 52.3254C331.592 51.1454 328.311 44.0754 323.262 42.2454C318.204 40.4254 313.97 36.6254 309.186 34.5754C304.403 32.5254 299.727 29.4454 294.777 27.2454C289.826 25.0554 285.838 24.1954 280.691 21.5854C275.554 18.9754 268.855 17.6254 263.266 19.3254Z" fill="#FCFDFA" stroke="#FCFDFA"/>
<path d="M206.294 37.325C186.158 46.395 178.113 67.145 167.004 84.325C166.542 86.255 163.615 87.015 164.057 89.325C166.061 89.655 167.043 87.485 167.986 86.325C174.823 77.955 178.153 68.085 183.997 58.625C189.841 49.175 200.902 45.015 208.259 38.325C208.436 36.795 211.029 37.335 210.223 35.325C208.465 34.985 207.699 36.695 206.294 37.325Z" fill="#482709"/>
<path d="M167.004 84.3252C178.113 67.1452 186.158 46.3952 206.294 37.3252C194.242 37.9452 185.323 41.0652 176.601 51.0952C167.878 61.1252 170.265 73.7152 167.004 84.3252Z" fill="#CAB257"/>
<path d="M167.986 86.3252C179.046 80.6752 190.126 80.3252 199.644 70.5552C209.162 60.7852 207.905 49.2752 208.259 38.3252C200.902 45.0152 189.841 49.1752 183.997 58.6252C178.152 68.0852 174.822 77.9552 167.986 86.3252Z" fill="#CBB354"/>
<path d="M240.674 81.3252C240.448 80.9652 240.674 80.3252 240.674 80.3252C226.942 78.7252 229.231 62.9352 234.78 54.3252C252.864 48.3252 291.388 55.2552 279.965 81.3252C277.273 81.2952 274.975 82.9552 272.106 82.3252C272.126 82.8252 272.106 83.3252 272.106 83.3252C281.291 88.5152 289.05 70.2452 282.224 63.0252C275.397 55.7952 267.411 52.5152 257.382 51.3152C247.353 50.1152 234.643 48.7353 229.653 59.1053C224.653 69.4653 228.356 83.6252 240.674 81.3252Z" fill="#F5E8BA"/>
<path d="M335.953 52.3252C327.368 55.4352 317.781 64.3052 311.475 70.4052C305.169 76.5152 305.484 76.8452 302.478 83.2452C299.482 89.6552 297.37 91.8852 296.653 98.3152C295.936 104.755 287.449 104.425 285.858 108.325C286.202 108.455 286.604 109.255 286.84 109.325C300.779 112.165 309.53 119.485 322.87 124.645C336.199 129.815 339.431 141.265 344.774 154.345C350.108 167.435 345.609 186.825 343.812 200.325C342.819 207.735 348.3 216.035 342.829 224.325C347.466 223.145 352.21 226.765 356.581 227.325C357.062 227.385 358.084 227.435 358.545 227.325C361.61 221.235 375.352 223.835 381.383 220.525C387.404 217.205 398.592 214.865 405.694 213.325C405.115 207.135 411.097 208.825 414.535 210.325C415.419 206.255 422.766 203.505 424.367 197.335C425.958 191.155 427.275 182.225 424.328 176.355C421.371 170.495 416.371 167.325 409.623 166.325C416.145 151.305 424.279 132.845 419.23 115.545C414.171 98.2552 396.451 91.6852 380.155 92.3252C378.888 70.7852 361.09 43.2252 335.953 52.3252Z" fill="#F8EBE1" stroke="#F8EBE1"/>
<path d="M240.674 80.325C238.719 77.215 239.731 71.165 244.357 69.075C248.984 66.985 250.938 75.035 248.532 79.325C248.532 79.325 248.296 80.025 248.532 80.325C251.626 84.255 243.856 91.405 253.453 92.315C263.05 93.225 255.771 86.515 260.319 82.325C256.429 77.845 256.419 65.9551 262.942 67.6551C269.464 69.3651 271.91 77.085 272.106 82.325C274.974 82.955 277.273 81.295 279.964 81.325C291.388 55.255 252.864 48.325 234.78 54.325C229.23 62.935 226.942 78.725 240.674 80.325Z" fill="#F8ECE3"/>
<path d="M260.319 82.3253C260.535 82.5753 261.301 82.3253 261.301 82.3253C261.301 82.3253 261.409 81.7953 261.301 81.3253C260.397 77.4053 256.684 66.6553 263.344 69.2553C269.994 71.8553 270.426 78.1453 271.124 83.3253C271.124 83.3253 271.733 83.1153 272.106 83.3253C272.106 83.3253 272.126 82.8253 272.106 82.3253C271.91 77.0853 269.464 69.3653 262.942 67.6553C256.419 65.9553 256.429 77.8453 260.319 82.3253Z" fill="#3E2F26"/>
<path d="M240.674 80.325C240.674 80.325 240.448 80.965 240.674 81.325C241.017 81.255 241.636 80.665 241.656 80.325C242.324 69.565 250.594 67.965 247.549 79.325C247.549 79.325 248.286 79.075 248.532 79.325C250.938 75.035 248.983 66.985 244.357 69.075C239.731 71.165 238.719 77.215 240.674 80.325Z" fill="#44332D"/>
<path d="M261.301 81.3253C264.051 82.9253 268.481 85.3953 271.124 83.3253C270.426 78.1453 269.994 71.8553 263.344 69.2553C256.684 66.6553 260.397 77.4053 261.301 81.3253Z" fill="#F2E6D6"/>
<path d="M241.656 80.325C243.984 80.485 245.054 80.565 247.549 79.325C250.594 67.965 242.324 69.565 241.656 80.325Z" fill="#F5E6DA"/>
<path d="M261.301 82.3252C261.301 82.3252 260.535 82.5752 260.319 82.3252C255.771 86.5152 263.05 93.2252 253.453 92.3152C243.856 91.4052 251.626 84.2552 248.532 80.3252C244.622 85.2852 242.393 92.2752 251.469 94.3352C260.555 96.3852 261.301 91.7352 261.301 82.3252Z" fill="#F6EABF"/>
<path d="M103.157 117.325C102.96 116.925 103.157 116.325 103.157 116.325C93.3931 116.695 98.6089 110.945 92.3519 107.325C91.0553 101.115 94.228 94.1352 100.21 92.3252C101.084 94.4652 102.233 97.0852 105.121 96.3252C104.768 93.9052 104.915 92.4052 104.139 90.3252C109.532 89.4852 114.787 87.1752 119.855 90.3252C119.099 95.0152 111.339 90.1352 109.05 93.3252C112.626 94.1652 123.362 96.9152 123.784 91.3252C137.3 91.1252 151.17 105.915 141.465 118.325C139.383 118.265 137.31 118.095 135.572 119.325C135.729 119.775 135.797 120.985 135.572 121.325C144.314 122.315 149.608 111.525 146.691 104.005C143.783 96.4852 138.617 92.5552 130.68 90.3052C122.743 88.0452 113.038 87.4652 104.139 87.3252C95.2495 87.1852 92.4206 96.8652 90.3873 103.325C88.354 109.785 97.2141 123.515 103.157 117.325Z" fill="#F6ECC3"/>
<path d="M103.157 116.325C102.803 113.025 103.078 105.925 108.294 105.555C113.51 105.185 112.243 113.135 111.997 116.325C111.555 122.215 108.098 131.135 118.873 130.325C125.552 127.655 119.502 120.045 122.802 118.325C118.588 113.455 119.61 102.385 126.407 104.655C133.214 106.935 133.823 114.205 135.571 119.325C137.31 118.095 139.383 118.265 141.465 118.325C151.17 105.915 137.3 91.1252 123.784 91.3252C123.362 96.9152 112.626 94.1652 109.05 93.3252C111.339 90.1352 119.099 95.0152 119.855 90.3252C114.787 87.1752 109.532 89.4852 104.139 90.3252C104.915 92.4052 104.768 93.9052 105.121 96.3252C102.233 97.0852 101.084 94.4652 100.21 92.3252C94.228 94.1352 91.0553 101.115 92.3519 107.325C98.6089 110.945 93.3931 116.695 103.157 116.325ZM104.139 104.325C100.76 106.585 98.7955 101.735 95.2986 102.325C95.9273 98.0452 104.021 100.835 104.139 104.325Z" fill="#F8ECE5"/>
<path d="M104.139 104.325C104.021 100.835 95.927 98.0451 95.2983 102.325C98.7952 101.735 100.76 106.585 104.139 104.325Z" fill="#F8F2D7"/>
<path d="M122.802 118.325C122.802 118.325 123.293 118.325 123.784 118.325C122.763 114.705 119.511 104.435 125.435 105.665C131.358 106.895 133.44 114.845 133.607 119.325C133.627 119.825 133.607 120.325 133.607 120.325C133.587 120.295 135.473 121.315 135.572 121.325C135.797 120.985 135.729 119.775 135.572 119.325C133.823 114.205 133.214 106.935 126.407 104.655C119.61 102.385 118.588 113.455 122.802 118.325Z" fill="#3E2D24"/>
<path d="M103.157 116.325C103.157 116.325 102.96 116.925 103.157 117.325C103.137 117.275 105.052 118.325 105.121 118.325C105.347 117.985 105.318 116.735 105.121 116.325C104.09 114.135 102.665 109.455 107.331 107.575C111.997 105.695 109.669 113.695 110.032 115.325C109.571 115.225 112.242 116.505 111.997 116.325C112.242 113.135 113.51 105.185 108.294 105.555C103.078 105.925 102.803 113.025 103.157 116.325Z" fill="#44362D"/>
<path d="M123.784 118.325C123.784 118.325 124.275 118.375 124.766 118.325C127.497 118.065 131.23 118.045 133.607 119.325C133.44 114.845 131.357 106.895 125.434 105.665C119.511 104.435 122.762 114.705 123.784 118.325Z" fill="#F2E4DC"/>
<path d="M105.121 116.325C105.249 116.205 109.63 115.235 110.032 115.325C109.669 113.695 111.997 105.695 107.331 107.575C102.665 109.455 104.09 114.135 105.121 116.325Z" fill="#F6E7E3"/>
<path d="M240.674 137.325C241.577 137.695 242.874 138.015 243.62 138.325C257.942 144.255 271.743 151.715 285.858 158.325C289.011 148.955 295.671 140.645 303.539 134.325C305.592 132.465 307.615 130.285 310.414 129.325C309.324 131.915 306.289 133.975 305.503 137.325C300.022 148.245 298.058 162.655 299.61 175.325C301.162 187.995 311.092 196.795 305.503 210.325C311.004 205.275 316.583 203.945 322.889 200.025C329.186 196.095 338.439 197.445 343.812 200.325C345.609 186.825 350.108 167.435 344.774 154.345C339.431 141.265 336.199 129.815 322.87 124.645C309.53 119.485 300.778 112.165 286.84 109.325C266.488 104.985 245.958 117.885 233.798 133.325C236.646 133.415 238.464 136.435 240.674 137.325Z" fill="#320202"/>
<path d="M105.121 116.325C105.318 116.735 105.347 117.985 105.121 118.325C106.958 118.525 108.127 116.705 110.032 117.325C107.243 125.305 107.027 130.205 116.692 131.545C126.358 132.895 124.55 125.845 122.802 118.325C119.501 120.045 125.552 127.655 118.873 130.325C108.097 131.135 111.555 122.215 111.997 116.325C112.243 116.505 109.571 115.225 110.032 115.325C109.63 115.235 105.249 116.205 105.121 116.325Z" fill="#F2E6B9"/>
<path d="M178.791 117.325C178.545 117.615 178.565 119.165 178.791 119.325C179.125 119.555 179.773 119.325 179.773 119.325C180.402 116.685 179.881 118.525 181.737 118.325C181.02 118.405 185.411 117.745 184.684 118.325C184.674 117.575 184.606 116.425 185.667 116.325C184.615 115.765 180.018 115.865 178.791 117.325Z" fill="#F99067"/>
<path d="M184.684 118.325C184.832 128.155 184.016 140.675 177.052 148.555C170.078 156.435 168.005 166.745 159.145 170.325C164.852 151.985 186.03 140.115 181.737 118.325C179.881 118.525 180.402 116.685 179.773 119.325C180.117 123.185 179.292 127.205 178.791 130.325C178.172 141.985 167.73 149.085 162.171 159.405C156.611 169.735 153.095 183.115 158.163 195.325C161.071 189.025 157.309 183.465 158.163 176.325C159.018 169.185 170.127 174.265 174.862 171.325C173.663 167.625 178.692 164.115 179.773 160.325C179.94 159.995 180.411 159.385 180.755 159.325C181.58 157.995 183.054 156.445 183.702 155.325C186.639 150.255 190.185 141.465 192.611 136.395C195.047 131.325 194.261 116.745 187.631 116.325C191.157 126.395 192.837 138.025 184.93 146.575C177.023 155.115 178.938 168.845 166.021 169.325C175.068 152.835 191.963 137.165 186.649 116.325C186.649 116.325 186.158 116.275 185.667 116.325C184.606 116.425 184.674 117.575 184.684 118.325Z" fill="#631B0F"/>
<path d="M187.631 116.325C187.631 116.325 187.14 116.325 186.649 116.325C191.963 137.165 175.068 152.835 166.021 169.325C178.938 168.845 177.023 155.115 184.93 146.575C192.837 138.025 191.158 126.395 187.631 116.325Z" fill="#E89073"/>
<path d="M129.678 176.325C129.727 176.675 130.316 177.295 130.66 177.325C131.151 177.375 131.642 177.325 131.642 177.325C131.642 162.565 143.734 155.705 152.515 145.575C161.287 135.435 170.785 129.865 178.791 119.325C178.565 119.165 178.545 117.615 178.791 117.325C173.938 121.255 165.393 125.675 164.057 132.325C154.45 138.015 145.6 146.635 138.518 158.325C130.1 157.645 128.735 169.675 129.678 176.325Z" fill="#968320" stroke="#968320"/>
<path d="M181.738 118.325C186.03 140.115 164.852 151.985 159.146 170.325C168.006 166.745 170.078 156.435 177.052 148.555C184.016 140.675 184.832 128.155 184.684 118.325C185.411 117.745 181.021 118.405 181.738 118.325Z" fill="#E79074"/>
<path d="M133.606 120.325C133.606 120.325 133.626 119.825 133.606 119.325C131.229 118.045 127.497 118.065 124.766 118.325C126.691 120.005 131.387 122.655 133.606 120.325Z" fill="#EDE0B2"/>
<path d="M131.642 177.325C131.642 183.315 129.933 186.915 128.695 192.325C128.587 192.795 128.695 193.325 128.695 193.325C127.968 195.375 126.731 197.335 124.766 198.325C124.472 198.475 123.391 199.455 122.802 198.325C121.967 203.085 119.246 205.005 115.926 209.325C114.305 211.435 113.765 214.155 111.015 215.325C109.158 225.035 94.6894 230.655 92.3516 240.325C105.082 248.605 118.598 255.605 131.642 263.325C128.499 258.065 136.229 249.295 139.5 245.325C137.781 246.765 136.072 248.775 133.607 248.325C143.803 234.705 166.149 236.105 175.107 219.575C184.066 203.045 197.434 195.165 212.188 186.325C195.401 175.705 178.702 196.305 162.092 195.325C165.344 191.595 171.493 192.405 175.844 190.325C176.041 190.215 175.844 189.325 175.844 189.325C172.563 189.095 170.088 190.745 167.004 191.325C172.514 188.905 172.455 183.215 173.88 177.325C179.734 178.195 183.732 170.445 189.606 171.335C195.48 172.215 200.872 174.265 202.365 180.325C202.738 180.465 204.153 181.265 204.33 181.325C206.854 181.455 208.72 182.135 211.206 182.325C211.029 182.255 211.206 181.325 211.206 181.325C209.948 175.965 204.654 171.195 200.322 167.405C195.99 163.625 187.896 156.155 183.702 163.325C180.687 164.505 181.384 161.305 179.773 160.325C178.693 164.115 173.663 167.625 174.862 171.325C170.127 174.265 159.018 169.185 158.163 176.325C157.309 183.465 161.071 189.025 158.163 195.325C153.095 183.115 156.611 169.735 162.171 159.405C167.731 149.085 178.172 141.985 178.791 130.325C178.987 126.685 178.467 122.955 178.791 119.325C170.785 129.865 161.287 135.435 152.515 145.575C143.734 155.705 131.642 162.565 131.642 177.325Z" fill="#F99067" stroke="#F99067"/>
<path d="M178.791 130.325C179.292 127.205 180.117 123.185 179.773 119.325C179.773 119.325 179.125 119.555 178.791 119.325C178.467 122.955 178.987 126.685 178.791 130.325Z" fill="#CF8275" stroke="#F99067"/>
<path d="M303.539 134.325C303.853 134.685 305.474 137.015 305.503 137.325C306.289 133.975 309.324 131.915 310.414 129.325C307.615 130.285 305.592 132.465 303.539 134.325Z" fill="#F89068"/>
<path d="M243.62 138.325C243.778 138.495 239.77 144.405 238.385 146.995C237.01 149.595 232.462 153.545 231.863 157.355C231.264 161.155 229.692 166.165 227.914 169.335C226.136 172.505 225.694 177.865 223.975 180.325C225.35 179.855 227.678 181.785 228.886 182.325C227.02 180.225 228.307 176.855 227.904 174.325C231.097 180.345 237.854 179.635 243.62 178.325C242.844 183.225 237.059 184.655 232.815 184.325C242.108 193.145 240.055 215.725 224.957 219.325C230.154 225.295 228.395 239.195 237.727 240.325C236.165 251.935 247.844 251.605 254.425 254.325C258.629 254.325 263.01 254.695 267.195 254.325C277.361 253.415 286.644 248.185 294.698 242.325C290.799 250.455 285.003 258.725 277.017 263.325C290.042 264.985 306.299 264.995 319.255 263.325C320.551 261.435 319.255 253.735 319.255 251.325C319.255 246.325 319.255 241.325 319.255 236.325C328.793 236.835 336.356 230.905 342.829 224.325C348.3 216.035 342.819 207.735 343.811 200.325C338.438 197.445 329.185 196.095 322.889 200.025C316.583 203.945 311.004 205.275 305.503 210.325C311.092 196.795 301.161 187.995 299.609 175.325C298.057 162.655 300.022 148.245 305.503 137.325C305.474 137.015 303.853 134.685 303.539 134.325C295.671 140.645 289.011 148.955 285.858 158.325C271.743 151.715 257.942 144.255 243.62 138.325ZM247.549 160.325C243.64 159.035 238.346 157.375 233.798 157.325C238.13 153.755 245.084 155.095 247.549 160.325ZM284.876 174.325C281.536 170.545 275.799 167.575 271.124 168.325C275.279 163.605 284.895 168.105 284.876 174.325ZM283.893 187.325C281.83 197.525 261.684 197.015 263.266 185.325C269.149 190.315 277.096 189.955 283.893 187.325ZM285.858 196.325C308.902 200.135 302.016 241.445 278.324 235.995C254.632 230.545 261.134 192.235 285.858 196.325ZM341.847 205.325C336.503 207.295 330.973 210.125 327.113 214.325C331.238 214.555 336.336 217.535 335.953 222.325C329.235 210.695 319.736 219.845 316.308 228.325C317.251 217.535 331.052 203.765 341.847 205.325ZM262.283 208.325C259.985 218.055 244.18 217.385 241.656 208.325C247.893 213.955 256.262 214.595 262.283 208.325Z" fill="#F89068"/>
<g filter="url(#filter0_d_36273_9332)">
<path d="M225.448 219.325L222.01 219.825C230.303 242.742 239.24 259.566 252.952 256.825V254.325C241.781 250.452 235.827 242.005 225.448 219.325Z" fill="#F89068"/>
</g>
<path d="M233.307 217.325L224.466 219.825C229.979 234.788 233.5 243.14 249.023 257.325C259.067 256.676 260.847 255.256 266.213 253.325L233.307 217.325Z" fill="#F89068"/>
<path d="M223.975 179.325C233.71 183.84 236.868 186.442 238.218 192.825L220.046 194.825L222.01 180.325L223.975 179.325Z" fill="#F89068"/>
<path d="M231.833 152.325C227.904 161.065 224.358 170.955 222.011 180.325C222.315 180.085 223.808 180.565 223.975 180.325C225.694 177.865 226.136 172.505 227.914 169.335C229.692 166.165 231.264 161.155 231.863 157.355C232.462 153.545 237.01 149.595 238.385 146.995C239.77 144.405 243.778 138.495 243.621 138.325C242.874 138.015 241.577 137.695 240.674 137.325C237.531 138.355 233.886 149.125 231.833 152.325Z" fill="#F89068"/>
<path d="M77.6178 145.325C69.5142 150.155 63.267 161.205 59.1807 169.555C55.0945 177.905 50.5172 191.955 48.1499 201.325C48.3464 203.195 46.5586 204.385 47.1676 206.325C48.7786 205.775 49.5644 203.525 50.1144 202.325C53.1005 195.825 54.515 187.925 56.7742 181.105C59.0236 174.275 62.8249 167.625 65.7521 161.245C68.6891 154.875 76.7927 152.095 79.5824 146.325C78.8064 144.095 80.987 144.765 77.6178 145.325Z" fill="#472708"/>
<path d="M48.1498 201.325C50.5171 191.955 55.0944 177.905 59.1807 169.555C63.2669 161.205 69.5141 150.155 77.6178 145.325C49.417 150.005 46.7943 177.765 48.1498 201.325Z" fill="#CAB157"/>
<path d="M50.1143 202.325C58.326 196.065 67.6772 193.315 75.4076 183.075C83.1478 172.835 83.8059 158.505 79.5822 146.325C76.7926 152.095 68.6889 154.875 65.7519 161.245C62.8248 167.625 59.0234 174.275 56.774 181.105C54.5148 187.925 53.1003 195.825 50.1143 202.325Z" fill="#CBB455"/>
<path d="M180.755 159.325C185.637 158.435 192.002 157.915 195.715 161.095C199.428 164.275 203.033 167.935 206.373 170.245C209.713 172.545 217.335 178.485 211.206 181.325C211.206 181.325 211.029 182.255 211.206 182.325C213.642 183.335 214.614 185.755 214.152 188.325C214.977 186.235 218.248 186.835 218.081 184.325C216.117 186.135 214.054 184.405 213.17 182.325C215.272 180.765 216.176 178.895 217.099 176.325C212.129 172.175 206.471 167.655 201.609 164.095C196.747 160.535 190.156 153.475 183.702 155.325C183.054 156.445 181.58 157.995 180.755 159.325Z" fill="#968320" stroke="#968320"/>
<path d="M247.55 160.325C245.084 155.095 238.13 153.755 233.798 157.325C238.346 157.375 243.64 159.035 247.55 160.325Z" fill="#711C12"/>
<path d="M180.755 159.325C180.411 159.385 179.94 159.995 179.773 160.325C181.384 161.305 180.686 164.505 183.702 163.325C187.896 156.155 195.99 163.625 200.322 167.405C204.654 171.195 209.948 175.965 211.205 181.325C217.335 178.485 209.712 172.545 206.373 170.245C203.033 167.935 199.428 164.275 195.715 161.095C192.002 157.915 185.637 158.435 180.755 159.325Z" fill="#F99067" stroke="#F99067"/>
<path d="M284.875 174.325C284.895 168.105 275.279 163.605 271.124 168.325C275.799 167.575 281.536 170.545 284.875 174.325Z" fill="#6B190F"/>
<path d="M175.844 189.325C174.872 186.525 174.675 183.445 174.862 180.325C180.893 178.485 188.899 168.495 194.507 175.325C195.332 176.085 195.804 176.445 196.472 177.325C197.68 178.285 200.764 179.715 202.365 180.325C200.872 174.265 195.48 172.215 189.606 171.335C183.732 170.445 179.734 178.195 173.88 177.325C172.455 183.215 172.514 188.905 167.004 191.325C170.088 190.745 172.564 189.095 175.844 189.325Z" fill="#EE9657"/>
<path d="M175.844 189.325C175.844 189.325 176.04 190.215 175.844 190.325C177.769 190.045 178.516 188.085 179.773 187.325C178.467 187.255 177.15 187.385 175.844 187.325C175.972 178.765 187.484 172.805 194.507 175.325C188.898 168.495 180.893 178.485 174.862 180.325C174.675 183.445 174.872 186.525 175.844 189.325Z" fill="#B37422"/>
<path d="M106.103 204.325C101.919 203.495 98.3925 201.395 95.2983 198.325C91.9095 179.295 113.873 171.405 127.713 180.325C128.921 178.775 131.534 181.125 130.66 177.325C130.316 177.295 129.727 176.675 129.678 176.325C123.224 175.235 124.03 175.485 116.908 174.325C109.787 173.165 100.72 174.955 96.5851 181.635C92.4399 188.305 92.5676 197.365 97.0173 203.575C101.477 209.775 103.579 204.165 106.103 204.325Z" fill="#F1E7BA"/>
<path d="M179.773 187.325C184.92 184.235 193.407 181.745 199.419 181.325C198.584 181.045 197.012 178.045 196.472 177.325C195.804 176.445 195.332 176.085 194.507 175.325C187.484 172.805 175.972 178.765 175.844 187.325C177.151 187.385 178.467 187.255 179.773 187.325Z" fill="#9F7F12"/>
<path d="M228.886 182.325C230.379 182.985 231.725 183.295 232.815 184.325C237.059 184.655 242.844 183.225 243.62 178.325C237.854 179.635 231.096 180.345 227.904 174.325C228.307 176.855 227.02 180.225 228.886 182.325Z" fill="#58160B"/>
<path d="M106.103 204.325C102.115 193.065 120.68 189.485 114.944 203.325C114.649 204.045 114.403 204.665 113.961 205.325C113.932 205.705 115.926 208.995 115.926 209.325C119.246 205.005 121.967 203.085 122.802 198.325C123.381 195.025 124.167 191.145 128.695 192.325C129.933 186.915 131.642 183.315 131.642 177.325C131.642 177.325 131.151 177.375 130.66 177.325C131.534 181.125 128.921 178.775 127.713 180.325C113.873 171.405 91.9094 179.295 95.2982 198.325C98.3923 201.395 101.919 203.495 106.103 204.325Z" fill="#F8EBE1" stroke="#F8EBE1"/>
<path d="M199.418 181.325C201.01 181.215 202.729 181.245 204.33 181.325C204.153 181.265 202.739 180.465 202.365 180.325C200.764 179.715 197.68 178.285 196.472 177.325C197.012 178.045 198.584 181.045 199.418 181.325Z" fill="#AF7533"/>
<path d="M222.115 219.398C222.67 219.348 223.224 219.398 223.224 219.398C240.266 215.798 242.583 193.218 232.094 184.398C230.863 183.368 229.344 183.058 227.659 182.398C226.295 181.858 223.667 179.928 222.115 180.398C219.709 193.298 216.66 206.258 222.115 219.398Z" fill="#F5480D"/>
<path d="M179.773 187.325C178.516 188.085 177.769 190.045 175.844 190.325C171.492 192.405 165.343 191.595 162.092 195.325C178.702 196.305 195.401 175.705 212.188 186.325C197.434 195.165 184.065 203.045 175.107 219.575C166.149 236.105 143.802 234.705 133.606 248.325C136.072 248.775 137.781 246.765 139.5 245.325C147.987 238.235 161.925 239.235 169.214 230.575C176.492 221.905 181.845 215.175 188.859 206.575C195.872 197.975 205.548 193.865 214.152 188.325C214.614 185.755 213.641 183.335 211.205 182.325C208.72 182.135 206.854 181.455 204.33 181.325C202.728 181.245 201.009 181.215 199.418 181.325C193.407 181.745 184.92 184.235 179.773 187.325Z" fill="#5E210C"/>
<path d="M283.893 187.325C277.096 189.955 269.149 190.315 263.266 185.325C261.684 197.015 281.83 197.525 283.893 187.325Z" fill="#4A0B06"/>
<path d="M122.802 198.325C123.391 199.455 124.472 198.475 124.766 198.325C126.338 195.785 123.804 192.985 128.695 193.325C128.695 193.325 128.587 192.795 128.695 192.325C124.167 191.145 123.381 195.025 122.802 198.325Z" fill="#503228"/>
<path d="M106.103 204.325C106.624 205.795 107.763 205.315 108.067 205.325C108.166 204.845 108.254 203.735 108.067 203.325C103.971 194.175 119.776 192.335 112.979 203.325C112.753 203.685 112.979 204.325 112.979 204.325C113.49 204.065 114.57 203.825 114.943 203.325C120.68 189.485 102.115 193.065 106.103 204.325Z" fill="#403124"/>
<path d="M124.766 198.325C126.731 197.335 127.968 195.375 128.695 193.325C123.803 192.985 126.338 195.785 124.766 198.325Z" fill="#FDD5C4"/>
<path d="M108.067 203.325C108.902 201.965 111.967 202.675 112.979 203.325C119.776 192.335 103.971 194.175 108.067 203.325Z" fill="#EBE0D5"/>
<path d="M285.858 196.325C261.134 192.235 254.631 230.545 278.324 235.995C302.016 241.445 308.902 200.135 285.858 196.325Z" fill="#F5480D" stroke="#F5480D"/>
<path d="M108.068 203.325C108.255 203.735 108.166 204.845 108.068 205.325C110.052 205.365 111.27 205.185 112.979 204.325C112.979 204.325 112.753 203.685 112.979 203.325C111.967 202.675 108.903 201.965 108.068 203.325Z" fill="#F3EABD"/>
<path d="M341.847 205.325C331.052 203.765 317.251 217.535 316.308 228.325C319.736 219.845 329.235 210.695 335.953 222.325C336.336 217.535 331.239 214.555 327.113 214.325C330.973 210.125 336.503 207.295 341.847 205.325Z" fill="#68190E"/>
<path d="M111.015 214.325C111.005 214.825 111.015 215.325 111.015 215.325C113.765 214.155 114.305 211.435 115.926 209.325C115.926 208.995 113.932 205.705 113.961 205.325C112.115 208.095 111.103 210.665 111.015 214.325Z" fill="#F4DBA6"/>
<path d="M262.283 208.325C256.262 214.595 247.893 213.955 241.656 208.325C244.18 217.385 259.985 218.055 262.283 208.325Z" fill="#6D190E"/>
<path d="M358.545 227.325C376.148 223.185 394.329 220.325 410.605 212.325C411.273 250.425 398.887 286.025 379.173 317.325C377.935 319.435 376.668 321.345 375.244 323.325C381.609 319.135 386.452 310.375 390.705 301.065C394.968 291.765 399.417 284.505 402.816 274.395C406.225 264.295 408.071 253.505 410.615 243.335C413.159 233.155 412.766 219.375 414.534 210.325C411.097 208.825 405.115 207.135 405.694 213.325C398.592 214.865 387.404 217.205 381.383 220.525C375.352 223.835 361.61 221.235 358.545 227.325Z" fill="#FCFDFA" stroke="#FCFDFA"/>
<path d="M358.546 227.325C358.084 227.435 357.062 227.385 356.581 227.325C371.541 234.855 379.979 255.875 375.254 271.335C370.529 286.795 350.913 302.315 334.971 296.325C326.946 300.275 340.226 305.065 344.863 305.255C349.509 305.445 357.337 309.045 362.16 310.645C366.983 312.245 373.751 314.465 378.191 317.325C378.544 317.555 379.173 317.325 379.173 317.325C398.887 286.025 411.273 250.425 410.606 212.325C394.329 220.325 376.148 223.185 358.546 227.325Z" fill="#9F8211" stroke="#FCFDFA"/>
<path d="M90.3871 238.325C91.0648 238.775 91.556 239.805 92.3516 240.325C94.6894 230.655 109.158 225.035 111.015 215.325C111.015 215.325 111.005 214.825 111.015 214.325C108.294 214.905 101.28 223.375 99.5221 225.625C97.7737 227.875 90.3281 236.195 90.3871 238.325Z" fill="#968320" stroke="#968320"/>
<path d="M318.856 250.56C319.131 253.47 321.567 259.8 318.856 262.56C305.9 264.23 289.643 264.22 276.618 262.56C284.604 257.96 290.4 249.69 294.299 241.56C286.245 247.42 276.962 252.65 266.796 253.56C263.142 254.32 258.348 255.07 254.026 254.56C253.447 257.4 255.225 261.54 253.044 263.56C252.052 264.45 249.783 263.23 248.251 263.66C246.718 264.09 248.182 265.45 248.133 265.56C254.488 268.7 264.546 264.09 271.707 265.56C278.868 267.03 287.787 264.8 295.281 265.56C302.776 266.32 311.273 264.99 318.856 265.56C317.824 279.8 316.803 296.01 317.874 309.56C319.543 312.61 325.083 316.29 327.696 318.56C341.566 330.63 329.631 347.88 334.572 363.56C334.69 363.3 335.299 362.68 335.554 362.56C336.389 356.65 335.947 349.55 335.554 343.56C335.161 337.57 337.244 329.29 335.554 323.56C331.458 314.65 316.891 313.15 318.856 301.56C320.82 289.97 319.602 276.46 320.82 264.56C335.024 264.78 325.692 288.48 334.572 295.56C350.514 301.55 370.13 286.03 374.855 270.57C379.579 255.11 371.142 234.09 356.182 226.56C351.811 226 347.066 222.38 342.43 223.56C335.957 230.14 328.394 236.07 318.856 235.56C318.856 240.56 318.856 245.56 318.856 250.56Z" fill="#350303" stroke="#350303"/>
<path d="M291.751 242.325C279.473 246.159 254.622 253.825 253.443 253.825L252.952 257.325C273.9 253.08 281.087 249.432 291.751 242.325Z" fill="#F89068"/>
<path d="M180.755 265.325C187.16 257.685 192.955 252.275 199.173 244.075C205.4 235.875 216.991 234.285 223.975 228.325C224.221 228.115 223.808 226.755 223.975 226.325C216.588 222.985 206.167 229.285 200.106 232.025C194.036 234.755 188.712 241.665 185.588 247.245C182.474 252.835 184.645 254.095 181.512 258.095C178.378 262.095 180.569 266.095 180.755 265.325Z" fill="#CAB258" stroke="#CBB355"/>
<path d="M223.975 228.325C216.991 234.285 205.4 235.875 199.173 244.075C192.955 252.275 187.16 257.685 180.755 265.325C179.793 268.025 175.805 269.175 175.844 272.325C177.111 272.155 177.563 270.625 178.791 270.325C186.796 264.065 190.991 254.895 198.191 247.075C205.4 239.255 215.979 235.965 223.975 230.325C226.745 228.375 225.576 228.635 223.975 228.325Z" fill="#452408"/>
<path d="M178.791 270.325C185.431 268.705 196.167 267.755 202.149 265.105C208.131 262.455 216.569 259.715 219.751 254.025C222.924 248.335 228.926 239.465 226.922 233.325C226.215 232.755 224.24 231.115 223.975 230.325C215.98 235.965 205.401 239.255 198.191 247.075C190.991 254.895 186.796 264.065 178.791 270.325Z" fill="#CBB355" stroke="#CBB355"/>
<path d="M86.458 239.325C91.6738 239.225 97.0566 246.625 102.253 248.245C107.439 249.875 112.242 255.475 117.596 257.635C122.939 259.785 128.145 265.055 133.607 267.325C122.979 292.295 112.134 317.135 102.174 342.325C111.074 332.275 113.902 315.775 120.837 303.325C126.004 290.965 130.955 278.605 136.554 266.325C134.668 265.805 133.125 264.205 131.642 263.325C118.598 255.605 105.082 248.605 92.3516 240.325C91.556 239.805 91.0648 238.775 90.3871 238.325C86.8804 235.965 86.7625 239.105 86.458 239.325Z" fill="#59210A" stroke="black"/>
<path d="M45.2025 286.325C42.3343 293.085 38.6213 300.275 34.0931 307.015C29.5747 313.765 24.9286 319.915 22.8265 328.545C20.7245 337.175 16.3829 342.805 14.7523 351.325C13.1316 359.855 12.2967 370.875 15.99 379.065C19.6735 387.265 25.5081 391.655 30.4685 397.325C68.2759 410.755 109.521 395.375 146.376 386.325C148.055 386.055 149.44 385.055 151.287 385.325C151.287 381.845 149.912 373.645 152.269 371.325C152.525 371.075 153.252 371.325 153.252 371.325C155.737 373.775 154.764 386.575 154.234 390.325C166.709 393.955 176.62 398.765 190.362 400.545C204.094 402.325 219.142 403.325 233.797 403.325C249.317 401.795 265.682 397.265 280.946 393.325C281.093 391.915 281.594 389.985 282.911 389.325C287.223 382.235 289.099 381.195 297.645 382.325C304.294 383.205 311.033 377.925 316.553 374.575C322.073 371.215 321.494 369.865 325.374 368.555C329.254 367.245 331.533 361.365 333.988 362.325C332.633 351.155 337.141 337.055 333.988 326.325C331.808 320.325 321.111 316.495 318.272 310.325C317.201 296.775 318.223 280.565 319.254 266.325C311.671 265.755 303.175 267.085 295.68 266.325C288.185 265.565 279.266 267.795 272.106 266.325C264.945 264.855 254.887 269.465 248.531 266.325C246.537 270.945 248.246 276.615 246.567 281.325C231.42 281.575 212.335 282.805 197.454 282.325C182.572 281.845 165.284 282.115 153.32 288.395C141.366 294.675 129.942 295.835 120.837 303.325C113.902 315.775 111.073 332.275 102.174 342.325C112.134 317.135 122.978 292.295 133.606 267.325C128.145 265.055 122.939 259.785 117.595 257.635C112.242 255.475 107.439 249.875 102.252 248.245C97.0563 246.625 91.6735 239.225 86.4576 239.325C78.3932 245.165 70.4467 253.535 64.1111 261.575C57.7657 269.615 49.22 276.855 45.2025 286.325ZM223.975 340.325C235.035 343.345 229.416 362.455 218.081 358.325C206.746 354.195 213.121 337.355 223.975 340.325ZM294.698 340.325C305.866 342.555 301.485 362.065 289.786 358.325C278.088 354.585 283.618 338.115 294.698 340.325ZM223.975 381.325C234.161 384.105 230.133 402.635 218.985 399.395C207.846 396.155 212.05 378.065 223.975 381.325Z" fill="#FDC15B" stroke="#FDC15B"/>
<path d="M319.255 263.325C321.966 260.565 319.53 254.235 319.255 251.325C319.255 253.735 320.551 261.435 319.255 263.325Z" fill="#863A29" stroke="black"/>
<path d="M337.117 324.325C340.908 332.585 338.099 348.775 338.099 358.325C338.246 358.925 339.346 360.905 340.063 361.325C345.446 355.265 354.994 348.495 360.986 340.625C366.977 332.765 374.276 325.765 379.354 317.325C374.914 314.465 368.146 312.245 363.323 310.645C358.5 309.045 350.672 305.445 346.026 305.255C341.389 305.065 328.109 300.275 336.134 296.325C327.255 289.245 336.586 265.545 322.383 265.325C321.165 277.225 322.383 290.735 320.418 302.325C318.454 313.915 333.02 315.415 337.117 324.325Z" fill="#F9C05F" stroke="#F9C05F"/>
<path d="M144.412 388.325C144.992 388.095 145.856 386.605 146.377 386.325C109.522 395.375 68.2766 410.755 30.4693 397.325C25.5088 391.655 19.6742 387.265 15.9907 379.065C12.2974 370.875 13.1323 359.855 14.753 351.325C16.3836 342.805 20.7252 337.175 22.8273 328.545C24.9293 319.915 29.5754 313.765 34.0938 307.015C38.6221 300.275 42.335 293.085 45.2033 286.325C45.1148 286.105 43.4646 285.655 43.2387 285.325C43.1405 295.145 30.538 303.685 27.4439 313.245C24.3498 322.805 16.4622 332.775 14.6843 343.255C12.8966 353.735 9.11485 371.145 13.8494 381.245C18.5839 391.335 26.3045 397.795 36.6772 401.005C47.0499 404.215 65.2316 404.815 76.6357 403.325C88.0398 401.825 102.116 400.305 112.901 397.245C123.696 394.195 134.933 392.075 144.412 388.325Z" fill="#EBC77B" stroke="#EBC77B"/>
<path d="M333.989 326.325C333.37 324.215 329.569 320.825 328.095 319.325C325.482 317.055 319.942 313.375 318.272 310.325C321.111 316.495 331.808 320.325 333.989 326.325Z" fill="#DEA77D"/>
<path d="M333.989 326.325C337.142 337.055 332.633 351.155 333.989 362.325C334.175 363.905 334.274 363.255 334.971 364.325C330.03 348.645 341.965 331.395 328.095 319.325C329.569 320.825 333.37 324.215 333.989 326.325Z" fill="#B87F64"/>
<path d="M335.953 363.325C335.953 363.325 336.444 363.325 336.936 363.325C336.494 362.015 336.936 359.715 336.936 358.325C336.936 348.775 339.745 332.585 335.953 324.325C337.643 330.055 335.56 338.335 335.953 344.325C336.346 350.315 336.788 357.415 335.953 363.325Z" fill="#814B19"/>
<path d="M223.975 340.325C213.121 337.355 206.746 354.195 218.081 358.325C229.417 362.455 235.035 343.345 223.975 340.325ZM222.993 342.325C231.519 344.225 227.943 359.115 219.064 356.325C210.184 353.525 214.653 340.465 222.993 342.325Z" fill="#561F09"/>
<path d="M294.698 340.325C283.618 338.115 278.088 354.585 289.786 358.325C301.485 362.065 305.866 342.555 294.698 340.325ZM294.698 342.325C303.577 344.615 298.313 359.915 289.786 356.325C281.26 352.735 286.083 340.105 294.698 342.325Z" fill="#56200E"/>
<path d="M222.993 342.325C214.653 340.465 210.184 353.525 219.064 356.325C227.943 359.115 231.519 344.225 222.993 342.325Z" fill="#F4BD69"/>
<path d="M294.698 342.325C286.083 340.105 281.261 352.735 289.787 356.325C298.313 359.915 303.578 344.615 294.698 342.325Z" fill="#F0BB67"/>
<path d="M297.645 382.325C298.598 382.985 299.747 385.155 299.61 386.325C305.1 382.805 312.399 380.655 317.978 377.025C323.547 373.385 328.861 367.355 334.971 365.325C334.971 365.325 335.197 364.675 334.971 364.325C334.274 363.255 334.175 363.905 333.989 362.325C331.533 361.365 329.254 367.245 325.374 368.555C321.494 369.865 322.074 371.215 316.554 374.575C311.033 377.925 304.295 383.205 297.645 382.325Z" fill="#EBCB88" stroke="#FDC15B"/>
<path d="M299.61 386.325C299.256 386.555 298.627 386.325 298.627 386.325C297.38 387.635 296.339 387.665 294.698 388.325C300.179 386.725 311.996 385.325 317.064 380.095C322.133 374.865 334.244 373.205 334.971 365.325C328.861 367.355 323.547 373.385 317.978 377.025C312.399 380.655 305.1 382.805 299.61 386.325Z" fill="#FDF9DD" stroke="#FDF9DD"/>
<path d="M151.287 385.325C151.287 386.795 150.904 388.915 151.287 390.325C151.386 390.675 151.926 391.295 152.27 391.325C151.71 385.015 151.71 377.635 152.27 371.325C149.912 373.645 151.287 381.845 151.287 385.325Z" fill="#6D351B" stroke="black"/>
<path d="M152.27 391.325C152.27 391.325 152.761 391.375 153.252 391.325C153.812 385.015 153.812 377.635 153.252 371.325C153.252 371.325 152.525 371.075 152.27 371.325C151.71 377.635 151.71 385.015 152.27 391.325Z" fill="#3C0500" stroke="black"/>
<path d="M153.252 391.325C153.596 391.295 154.185 390.675 154.234 390.325C154.765 386.575 155.737 373.775 153.252 371.325C153.812 377.635 153.812 385.015 153.252 391.325Z" fill="#C6945D" stroke="black"/>
<path d="M223.975 381.325C212.05 378.065 207.846 396.155 218.985 399.395C230.134 402.635 234.161 384.105 223.975 381.325ZM222.993 383.325C231.509 385.225 227.992 400.285 219.063 397.325C210.125 394.365 214.712 381.485 222.993 383.325Z" fill="#571D0C"/>
<path d="M282.911 389.325C282.832 390.825 282.783 392.695 284.876 392.325C284.267 384.625 293.549 380.205 298.627 386.325C298.627 386.325 299.256 386.555 299.61 386.325C299.747 385.155 298.598 382.985 297.645 382.325C289.099 381.195 287.223 382.235 282.911 389.325Z" fill="#59270E"/>
<path d="M222.993 383.325C214.713 381.485 210.125 394.365 219.064 397.325C227.993 400.285 231.509 385.225 222.993 383.325ZM222.993 384.325C228.838 385.925 227.256 396.985 220.361 395.985C213.465 394.985 215.498 382.275 222.993 384.325Z" fill="#EBB584"/>
<path d="M282.911 389.325C281.595 389.985 281.094 391.915 280.947 393.325C265.682 397.265 249.318 401.795 233.798 403.325C248.728 403.325 263.128 399.215 277.017 395.325C284.404 393.255 288.186 390.925 294.698 388.325C296.339 387.665 297.38 387.635 298.627 386.325C293.549 380.205 284.267 384.625 284.876 392.325C282.783 392.695 282.833 390.825 282.911 389.325Z" fill="#ECCE94" stroke="#FDC15B"/>
<path d="M222.993 384.325C215.499 382.275 213.465 394.985 220.361 395.985C227.256 396.985 228.838 385.925 222.993 384.325Z" fill="#F5C456" stroke="#FDC15B"/>
<path d="M336.936 363.325L338.409 353.325C356.223 344.505 362.124 336.165 376.226 323.325C351.381 351.501 341.16 362.411 336.936 363.325Z" fill="#F9C05F"/>
<path d="M146.376 386.325C145.856 386.605 144.991 388.095 144.412 388.325C146.71 388.705 149.048 389.705 151.287 390.325C150.904 388.915 151.287 386.795 151.287 385.325C149.441 385.055 148.056 386.055 146.376 386.325Z" fill="#9D7F27"/>
<defs>
<filter id="filter0_d_36273_9332" x="218.01" y="219.325" width="38.9414" height="45.7927" filterUnits="userSpaceOnUse" color-interpolation-filters="sRGB">
<feFlood flood-opacity="0" result="BackgroundImageFix"/>
<feColorMatrix in="SourceAlpha" type="matrix" values="0 0 0 0 0 0 0 0 0 0 0 0 0 0 0 0 0 0 127 0" result="hardAlpha"/>
<feOffset dy="4"/>
<feGaussianBlur stdDeviation="2"/>
<feComposite in2="hardAlpha" operator="out"/>
<feColorMatrix type="matrix" values="0 0 0 0 0 0 0 0 0 0 0 0 0 0 0 0 0 0 0.25 0"/>
<feBlend mode="normal" in2="BackgroundImageFix" result="effect1_dropShadow_36273_9332"/>
<feBlend mode="normal" in="SourceGraphic" in2="effect1_dropShadow_36273_9332" result="shape"/>
</filter>
</defs>
</svg>
